<svg width="18" height="18" viewBox="0 0 18 18" fill="none" xmlns="http://www.w3.org/2000/svg">
<path fill-rule="evenodd" clip-rule="evenodd" d="M8.95725 0.9375C7.2255 0.9375 5.86875 0.9375 4.80975 1.08C3.72675 1.2255 2.87175 1.53 2.2005 2.2005C1.52925 2.87175 1.2255 3.72675 1.08 4.8105C0.9375 5.86875 0.9375 7.2255 0.9375 8.95725V9.04275C0.9375 10.7745 0.9375 12.1313 1.08 13.1903C1.2255 14.2732 1.53 15.1283 2.2005 15.7995C2.87175 16.4707 3.72675 16.7745 4.8105 16.92C5.4405 17.0047 6.17775 17.0393 7.0365 17.0535C7.09923 17.0643 7.16328 17.0651 7.22625 17.0557C7.80323 17.0615 8.38024 17.0638 8.95725 17.0625H9.04275C9.68775 17.0625 10.2818 17.0625 10.8263 17.055C10.8925 17.0651 10.9599 17.0641 11.0258 17.052C11.8583 17.037 12.5745 17.0033 13.1895 16.92C14.2733 16.7745 15.1283 16.47 15.7995 15.7995C16.4707 15.1283 16.7745 14.2733 16.92 13.1895C17.0625 12.1313 17.0625 10.7745 17.0625 9.04275V8.95725C17.0625 7.2255 17.0625 5.86875 16.92 4.80975C16.7745 3.72675 16.47 2.87175 15.7995 2.2005C15.1283 1.52925 14.2733 1.2255 13.1895 1.08C12.1313 0.9375 10.7745 0.9375 9.04275 0.9375H8.95725ZM11.4803 15.9165C12.0018 15.9067 12.5225 15.8696 13.0402 15.8055C13.9987 15.6765 14.577 15.4305 15.0037 15.0037C15.4312 14.5762 15.6765 13.9987 15.8055 13.0395C15.936 12.0645 15.9375 10.7835 15.9375 9C15.9375 7.2165 15.936 5.9355 15.8055 4.9605C15.6765 4.00125 15.4305 3.423 15.0037 2.9955C14.5762 2.56875 13.9987 2.3235 13.0395 2.1945C12.5125 2.13051 11.9825 2.09322 11.4517 2.08275V3.04575C11.4517 3.08475 11.4668 3.1485 11.544 3.24075C11.6235 3.33525 11.7443 3.42975 11.8868 3.51075C12.7627 4.00725 13.341 5.09325 13.341 6.06825C13.3411 6.57291 13.1854 7.0653 12.8953 7.47821C12.6051 7.89112 12.1946 8.20444 11.7198 8.3754C11.245 8.54636 10.729 8.56663 10.2422 8.43345C9.75546 8.30027 9.32165 8.02013 9 7.63125C8.67831 8.02017 8.24443 8.30034 7.75759 8.4335C7.27075 8.56666 6.75468 8.54633 6.27983 8.37527C5.80498 8.20422 5.39449 7.89078 5.1044 7.47775C4.81431 7.06472 4.65877 6.57222 4.659 6.0675C4.659 5.0925 5.2365 4.0065 6.11325 3.51C6.25575 3.429 6.3765 3.3345 6.45525 3.24C6.5325 3.14775 6.54825 3.084 6.54825 3.045V2.08275C5.9385 2.10075 5.41575 2.13375 4.9605 2.19525C4.00125 2.3235 3.423 2.56875 2.9955 2.99625C2.56875 3.42375 2.3235 4.00125 2.1945 4.9605C2.064 5.9355 2.0625 7.2165 2.0625 9C2.0625 10.7835 2.064 12.0645 2.1945 13.0395C2.3235 13.9987 2.5695 14.577 2.99625 15.0045C3.42375 15.4313 4.00125 15.6765 4.9605 15.8055C5.49696 15.8707 6.03643 15.9083 6.57675 15.918V14.988C6.57675 14.949 6.56175 14.8853 6.48375 14.793C6.38609 14.684 6.2704 14.5927 6.14175 14.523C5.26575 14.0273 4.6875 12.9405 4.6875 11.9655C4.68758 11.4609 4.84335 10.9686 5.13355 10.5558C5.42375 10.143 5.83425 9.82984 6.30903 9.65897C6.78382 9.48811 7.29976 9.46789 7.78646 9.6011C8.27315 9.7343 8.7069 10.0144 9.0285 10.4032C9.35015 10.0144 9.78396 9.73423 10.2707 9.60105C10.7575 9.46787 11.2735 9.48814 11.7483 9.6591C12.2231 9.83006 12.6336 10.1434 12.9238 10.5563C13.2139 10.9692 13.3696 11.4616 13.3695 11.9662C13.3695 12.9405 12.792 14.0273 11.9152 14.5238C11.7863 14.5934 11.6704 14.6847 11.5725 14.7938C11.496 14.8853 11.4803 14.949 11.4803 14.9888V15.9165ZM7.70175 15.9352C8.10175 15.9373 8.5345 15.938 9 15.9375C9.487 15.938 9.93875 15.937 10.3553 15.9345V14.9888C10.3553 14.6108 10.518 14.3003 10.7108 14.0707C10.895 13.8585 11.1151 13.6803 11.361 13.5443C11.8567 13.2638 12.2445 12.5677 12.2445 11.9655C12.2329 11.6213 12.0881 11.2952 11.8405 11.0558C11.593 10.8164 11.2621 10.6826 10.9178 10.6826C10.5734 10.6826 10.2425 10.8164 9.99498 11.0558C9.74743 11.2952 9.60257 11.6213 9.591 11.9655C9.591 12.1147 9.53174 12.2578 9.42625 12.3632C9.32076 12.4687 9.17768 12.528 9.0285 12.528C8.87932 12.528 8.73624 12.4687 8.63075 12.3632C8.52526 12.2578 8.466 12.1147 8.466 11.9655C8.466 11.6136 8.32622 11.2762 8.0774 11.0273C7.82859 10.7785 7.49113 10.6388 7.13925 10.6388C6.78737 10.6388 6.44991 10.7785 6.2011 11.0273C5.95228 11.2762 5.8125 11.6136 5.8125 11.9655C5.8125 12.5677 6.20025 13.263 6.696 13.5443C6.9165 13.6695 7.15575 13.8435 7.34625 14.0707C7.539 14.3003 7.70175 14.6108 7.70175 14.9888V15.9352ZM7.67325 2.0655V3.045C7.67325 3.42225 7.50975 3.7335 7.31775 3.963C7.13344 4.17495 6.91335 4.3529 6.6675 4.48875C6.17175 4.77 5.784 5.46525 5.784 6.0675C5.784 6.41938 5.92378 6.75684 6.1726 7.00565C6.42141 7.25447 6.75887 7.39425 7.11075 7.39425C7.46263 7.39425 7.80009 7.25447 8.0489 7.00565C8.29772 6.75684 8.4375 6.41938 8.4375 6.0675C8.4375 5.91832 8.49676 5.77524 8.60225 5.66975C8.70774 5.56426 8.85082 5.505 9 5.505C9.14918 5.505 9.29226 5.56426 9.39775 5.66975C9.50324 5.77524 9.5625 5.91832 9.5625 6.0675C9.5625 6.24173 9.59682 6.41426 9.66349 6.57522C9.73017 6.73619 9.8279 6.88245 9.9511 7.00565C10.0743 7.12885 10.2206 7.22658 10.3815 7.29326C10.5425 7.35993 10.715 7.39425 10.8892 7.39425C11.0635 7.39425 11.236 7.35993 11.397 7.29326C11.5579 7.22658 11.7042 7.12885 11.8274 7.00565C11.9506 6.88245 12.0483 6.73619 12.115 6.57522C12.1817 6.41426 12.216 6.24173 12.216 6.0675C12.216 5.46525 11.8282 4.77 11.3325 4.48875C11.0867 4.3529 10.8666 4.17495 10.6823 3.963C10.4895 3.7335 10.3267 3.423 10.3267 3.045V2.0655C9.91875 2.063 9.4765 2.062 9 2.0625C8.5235 2.062 8.081 2.063 7.6725 2.0655" fill="#726BEA"/>
</svg>
