<svg width="18" height="18" viewBox="0 0 18 18" fill="none" xmlns="http://www.w3.org/2000/svg">
<mask id="path-1-inside-1_327_7490" fill="white">
<path fill-rule="evenodd" clip-rule="evenodd" d="M8.95725 0.9375C7.2255 0.9375 5.86875 0.9375 4.80975 1.08C3.72675 1.2255 2.87175 1.53 2.2005 2.2005C1.52925 2.87175 1.2255 3.72675 1.08 4.8105C0.9375 5.86875 0.9375 7.2255 0.9375 8.95725V9.04275C0.9375 10.7745 0.9375 12.1312 1.08 13.1902C1.2255 14.2732 1.53 15.1283 2.2005 15.7995C2.87175 16.4707 3.72675 16.7745 4.8105 16.92C5.4405 17.0047 6.17775 17.0393 7.0365 17.0535C7.09923 17.0643 7.16328 17.0651 7.22625 17.0557C7.80323 17.0615 8.38024 17.0638 8.95725 17.0625H9.04275C9.68775 17.0625 10.2818 17.0625 10.8263 17.055C10.8925 17.0651 10.9599 17.0641 11.0258 17.052C11.8583 17.037 12.5745 17.0032 13.1895 16.92C14.2733 16.7745 15.1283 16.47 15.7995 15.7995C16.4707 15.1283 16.7745 14.2733 16.92 13.1895C17.0625 12.1313 17.0625 10.7745 17.0625 9.04275V8.95725C17.0625 7.2255 17.0625 5.86875 16.92 4.80975C16.7745 3.72675 16.47 2.87175 15.7995 2.2005C15.1283 1.52925 14.2733 1.2255 13.1895 1.08C12.1313 0.9375 10.7745 0.9375 9.04275 0.9375H8.95725ZM11.4803 15.9165C12.0018 15.9067 12.5225 15.8696 13.0402 15.8055C13.9987 15.6765 14.577 15.4305 15.0037 15.0037C15.4312 14.5762 15.6765 13.9987 15.8055 13.0395C15.936 12.0645 15.9375 10.7835 15.9375 9C15.9375 7.2165 15.936 5.9355 15.8055 4.9605C15.6765 4.00125 15.4305 3.423 15.0037 2.9955C14.5762 2.56875 13.9987 2.3235 13.0395 2.1945C12.5125 2.13051 11.9825 2.09322 11.4518 2.08275V3.04575C11.4518 3.08475 11.4668 3.1485 11.544 3.24075C11.6235 3.33525 11.7442 3.42975 11.8867 3.51075C12.7627 4.00725 13.341 5.09325 13.341 6.06825C13.3411 6.57291 13.1854 7.0653 12.8953 7.47821C12.6051 7.89112 12.1946 8.20444 11.7198 8.3754C11.245 8.54636 10.729 8.56663 10.2422 8.43345C9.75546 8.30027 9.32165 8.02013 9 7.63125C8.67831 8.02018 8.24443 8.30034 7.75759 8.4335C7.27075 8.56666 6.75468 8.54633 6.27983 8.37527C5.80498 8.20422 5.39449 7.89078 5.1044 7.47775C4.81431 7.06472 4.65877 6.57222 4.659 6.0675C4.659 5.0925 5.2365 4.0065 6.11325 3.51C6.25575 3.429 6.3765 3.3345 6.45525 3.24C6.5325 3.14775 6.54825 3.084 6.54825 3.045V2.08275C5.9385 2.10075 5.41575 2.13375 4.9605 2.19525C4.00125 2.3235 3.423 2.56875 2.9955 2.99625C2.56875 3.42375 2.3235 4.00125 2.1945 4.9605C2.064 5.9355 2.0625 7.2165 2.0625 9C2.0625 10.7835 2.064 12.0645 2.1945 13.0395C2.3235 13.9987 2.5695 14.577 2.99625 15.0045C3.42375 15.4313 4.00125 15.6765 4.9605 15.8055C5.49696 15.8707 6.03643 15.9083 6.57675 15.918V14.988C6.57675 14.949 6.56175 14.8853 6.48375 14.793C6.38609 14.684 6.2704 14.5927 6.14175 14.523C5.26575 14.0273 4.6875 12.9405 4.6875 11.9655C4.68758 11.4609 4.84335 10.9686 5.13355 10.5558C5.42375 10.143 5.83425 9.82984 6.30903 9.65897C6.78382 9.48811 7.29976 9.46789 7.78646 9.6011C8.27315 9.7343 8.7069 10.0144 9.0285 10.4033C9.35015 10.0144 9.78396 9.73423 10.2707 9.60105C10.7575 9.46787 11.2735 9.48814 11.7483 9.6591C12.2231 9.83006 12.6336 10.1434 12.9238 10.5563C13.2139 10.9692 13.3696 11.4616 13.3695 11.9662C13.3695 12.9405 12.792 14.0272 11.9153 14.5237C11.7863 14.5934 11.6704 14.6847 11.5725 14.7938C11.496 14.8853 11.4803 14.949 11.4803 14.9888V15.9165ZM7.70175 15.9352C8.10175 15.9372 8.5345 15.938 9 15.9375C9.487 15.938 9.93875 15.937 10.3553 15.9345V14.9888C10.3553 14.6108 10.518 14.3002 10.7108 14.0707C10.895 13.8585 11.1151 13.6803 11.361 13.5443C11.8567 13.2638 12.2445 12.5678 12.2445 11.9655C12.2329 11.6213 12.0881 11.2952 11.8405 11.0558C11.593 10.8164 11.2621 10.6826 10.9178 10.6826C10.5734 10.6826 10.2425 10.8164 9.99498 11.0558C9.74743 11.2952 9.60257 11.6213 9.591 11.9655C9.591 12.1147 9.53174 12.2578 9.42625 12.3632C9.32076 12.4687 9.17768 12.528 9.0285 12.528C8.87932 12.528 8.73624 12.4687 8.63075 12.3632C8.52526 12.2578 8.466 12.1147 8.466 11.9655C8.466 11.6136 8.32622 11.2762 8.0774 11.0273C7.82859 10.7785 7.49113 10.6388 7.13925 10.6388C6.78737 10.6388 6.44991 10.7785 6.2011 11.0273C5.95228 11.2762 5.8125 11.6136 5.8125 11.9655C5.8125 12.5678 6.20025 13.263 6.696 13.5443C6.9165 13.6695 7.15575 13.8435 7.34625 14.0707C7.539 14.3002 7.70175 14.6108 7.70175 14.9888V15.9352ZM7.67325 2.0655V3.045C7.67325 3.42225 7.50975 3.7335 7.31775 3.963C7.13344 4.17495 6.91335 4.3529 6.6675 4.48875C6.17175 4.77 5.784 5.46525 5.784 6.0675C5.784 6.41938 5.92378 6.75684 6.1726 7.00565C6.42141 7.25447 6.75887 7.39425 7.11075 7.39425C7.46263 7.39425 7.80009 7.25447 8.0489 7.00565C8.29772 6.75684 8.4375 6.41938 8.4375 6.0675C8.4375 5.91832 8.49676 5.77524 8.60225 5.66975C8.70774 5.56426 8.85082 5.505 9 5.505C9.14918 5.505 9.29226 5.56426 9.39775 5.66975C9.50324 5.77524 9.5625 5.91832 9.5625 6.0675C9.5625 6.24173 9.59682 6.41426 9.66349 6.57523C9.73017 6.73619 9.8279 6.88245 9.9511 7.00565C10.0743 7.12885 10.2206 7.22658 10.3815 7.29326C10.5425 7.35993 10.715 7.39425 10.8893 7.39425C11.0635 7.39425 11.236 7.35993 11.397 7.29326C11.5579 7.22658 11.7042 7.12885 11.8274 7.00565C11.9506 6.88245 12.0483 6.73619 12.115 6.57523C12.1817 6.41426 12.216 6.24173 12.216 6.0675C12.216 5.46525 11.8282 4.77 11.3325 4.48875C11.0867 4.3529 10.8666 4.17495 10.6823 3.963C10.4895 3.7335 10.3268 3.423 10.3268 3.045V2.0655C9.91875 2.063 9.4765 2.062 9 2.0625C8.5235 2.062 8.081 2.063 7.6725 2.0655"/>
</mask>
<path fill-rule="evenodd" clip-rule="evenodd" d="M8.95725 0.9375C7.2255 0.9375 5.86875 0.9375 4.80975 1.08C3.72675 1.2255 2.87175 1.53 2.2005 2.2005C1.52925 2.87175 1.2255 3.72675 1.08 4.8105C0.9375 5.86875 0.9375 7.2255 0.9375 8.95725V9.04275C0.9375 10.7745 0.9375 12.1312 1.08 13.1902C1.2255 14.2732 1.53 15.1283 2.2005 15.7995C2.87175 16.4707 3.72675 16.7745 4.8105 16.92C5.4405 17.0047 6.17775 17.0393 7.0365 17.0535C7.09923 17.0643 7.16328 17.0651 7.22625 17.0557C7.80323 17.0615 8.38024 17.0638 8.95725 17.0625H9.04275C9.68775 17.0625 10.2818 17.0625 10.8263 17.055C10.8925 17.0651 10.9599 17.0641 11.0258 17.052C11.8583 17.037 12.5745 17.0032 13.1895 16.92C14.2733 16.7745 15.1283 16.47 15.7995 15.7995C16.4707 15.1283 16.7745 14.2733 16.92 13.1895C17.0625 12.1313 17.0625 10.7745 17.0625 9.04275V8.95725C17.0625 7.2255 17.0625 5.86875 16.92 4.80975C16.7745 3.72675 16.47 2.87175 15.7995 2.2005C15.1283 1.52925 14.2733 1.2255 13.1895 1.08C12.1313 0.9375 10.7745 0.9375 9.04275 0.9375H8.95725ZM11.4803 15.9165C12.0018 15.9067 12.5225 15.8696 13.0402 15.8055C13.9987 15.6765 14.577 15.4305 15.0037 15.0037C15.4312 14.5762 15.6765 13.9987 15.8055 13.0395C15.936 12.0645 15.9375 10.7835 15.9375 9C15.9375 7.2165 15.936 5.9355 15.8055 4.9605C15.6765 4.00125 15.4305 3.423 15.0037 2.9955C14.5762 2.56875 13.9987 2.3235 13.0395 2.1945C12.5125 2.13051 11.9825 2.09322 11.4518 2.08275V3.04575C11.4518 3.08475 11.4668 3.1485 11.544 3.24075C11.6235 3.33525 11.7442 3.42975 11.8867 3.51075C12.7627 4.00725 13.341 5.09325 13.341 6.06825C13.3411 6.57291 13.1854 7.0653 12.8953 7.47821C12.6051 7.89112 12.1946 8.20444 11.7198 8.3754C11.245 8.54636 10.729 8.56663 10.2422 8.43345C9.75546 8.30027 9.32165 8.02013 9 7.63125C8.67831 8.02018 8.24443 8.30034 7.75759 8.4335C7.27075 8.56666 6.75468 8.54633 6.27983 8.37527C5.80498 8.20422 5.39449 7.89078 5.1044 7.47775C4.81431 7.06472 4.65877 6.57222 4.659 6.0675C4.659 5.0925 5.2365 4.0065 6.11325 3.51C6.25575 3.429 6.3765 3.3345 6.45525 3.24C6.5325 3.14775 6.54825 3.084 6.54825 3.045V2.08275C5.9385 2.10075 5.41575 2.13375 4.9605 2.19525C4.00125 2.3235 3.423 2.56875 2.9955 2.99625C2.56875 3.42375 2.3235 4.00125 2.1945 4.9605C2.064 5.9355 2.0625 7.2165 2.0625 9C2.0625 10.7835 2.064 12.0645 2.1945 13.0395C2.3235 13.9987 2.5695 14.577 2.99625 15.0045C3.42375 15.4313 4.00125 15.6765 4.9605 15.8055C5.49696 15.8707 6.03643 15.9083 6.57675 15.918V14.988C6.57675 14.949 6.56175 14.8853 6.48375 14.793C6.38609 14.684 6.2704 14.5927 6.14175 14.523C5.26575 14.0273 4.6875 12.9405 4.6875 11.9655C4.68758 11.4609 4.84335 10.9686 5.13355 10.5558C5.42375 10.143 5.83425 9.82984 6.30903 9.65897C6.78382 9.48811 7.29976 9.46789 7.78646 9.6011C8.27315 9.7343 8.7069 10.0144 9.0285 10.4033C9.35015 10.0144 9.78396 9.73423 10.2707 9.60105C10.7575 9.46787 11.2735 9.48814 11.7483 9.6591C12.2231 9.83006 12.6336 10.1434 12.9238 10.5563C13.2139 10.9692 13.3696 11.4616 13.3695 11.9662C13.3695 12.9405 12.792 14.0272 11.9153 14.5237C11.7863 14.5934 11.6704 14.6847 11.5725 14.7938C11.496 14.8853 11.4803 14.949 11.4803 14.9888V15.9165ZM7.70175 15.9352C8.10175 15.9372 8.5345 15.938 9 15.9375C9.487 15.938 9.93875 15.937 10.3553 15.9345V14.9888C10.3553 14.6108 10.518 14.3002 10.7108 14.0707C10.895 13.8585 11.1151 13.6803 11.361 13.5443C11.8567 13.2638 12.2445 12.5678 12.2445 11.9655C12.2329 11.6213 12.0881 11.2952 11.8405 11.0558C11.593 10.8164 11.2621 10.6826 10.9178 10.6826C10.5734 10.6826 10.2425 10.8164 9.99498 11.0558C9.74743 11.2952 9.60257 11.6213 9.591 11.9655C9.591 12.1147 9.53174 12.2578 9.42625 12.3632C9.32076 12.4687 9.17768 12.528 9.0285 12.528C8.87932 12.528 8.73624 12.4687 8.63075 12.3632C8.52526 12.2578 8.466 12.1147 8.466 11.9655C8.466 11.6136 8.32622 11.2762 8.0774 11.0273C7.82859 10.7785 7.49113 10.6388 7.13925 10.6388C6.78737 10.6388 6.44991 10.7785 6.2011 11.0273C5.95228 11.2762 5.8125 11.6136 5.8125 11.9655C5.8125 12.5678 6.20025 13.263 6.696 13.5443C6.9165 13.6695 7.15575 13.8435 7.34625 14.0707C7.539 14.3002 7.70175 14.6108 7.70175 14.9888V15.9352ZM7.67325 2.0655V3.045C7.67325 3.42225 7.50975 3.7335 7.31775 3.963C7.13344 4.17495 6.91335 4.3529 6.6675 4.48875C6.17175 4.77 5.784 5.46525 5.784 6.0675C5.784 6.41938 5.92378 6.75684 6.1726 7.00565C6.42141 7.25447 6.75887 7.39425 7.11075 7.39425C7.46263 7.39425 7.80009 7.25447 8.0489 7.00565C8.29772 6.75684 8.4375 6.41938 8.4375 6.0675C8.4375 5.91832 8.49676 5.77524 8.60225 5.66975C8.70774 5.56426 8.85082 5.505 9 5.505C9.14918 5.505 9.29226 5.56426 9.39775 5.66975C9.50324 5.77524 9.5625 5.91832 9.5625 6.0675C9.5625 6.24173 9.59682 6.41426 9.66349 6.57523C9.73017 6.73619 9.8279 6.88245 9.9511 7.00565C10.0743 7.12885 10.2206 7.22658 10.3815 7.29326C10.5425 7.35993 10.715 7.39425 10.8893 7.39425C11.0635 7.39425 11.236 7.35993 11.397 7.29326C11.5579 7.22658 11.7042 7.12885 11.8274 7.00565C11.9506 6.88245 12.0483 6.73619 12.115 6.57523C12.1817 6.41426 12.216 6.24173 12.216 6.0675C12.216 5.46525 11.8282 4.77 11.3325 4.48875C11.0867 4.3529 10.8666 4.17495 10.6823 3.963C10.4895 3.7335 10.3268 3.423 10.3268 3.045V2.0655C9.91875 2.063 9.4765 2.062 9 2.0625C8.5235 2.062 8.081 2.063 7.6725 2.0655" fill="white"/>
<path d="M4.80975 1.08L4.9429 2.0711L4.94311 2.07107L4.80975 1.08ZM2.2005 2.2005L1.49379 1.493L1.49339 1.49339L2.2005 2.2005ZM1.08 4.8105L2.07106 4.94395L2.07111 4.94356L1.08 4.8105ZM1.08 13.1902L2.0711 13.0571L2.07107 13.0569L1.08 13.1902ZM2.2005 15.7995L1.493 16.5062L1.49339 16.5066L2.2005 15.7995ZM4.8105 16.92L4.94382 15.9289L4.94356 15.9289L4.8105 16.92ZM7.0365 17.0535L7.20633 16.068L7.13027 16.0549L7.05309 16.0536L7.0365 17.0535ZM7.22625 17.0557L7.23626 16.0558L7.15762 16.055L7.07983 16.0665L7.22625 17.0557ZM8.95725 17.0625L8.95725 16.0625L8.95504 16.0625L8.95725 17.0625ZM10.8263 17.055L10.9777 16.0665L10.8956 16.054L10.8125 16.0551L10.8263 17.055ZM11.0258 17.052L11.0077 16.0522L10.9255 16.0536L10.8447 16.0685L11.0258 17.052ZM13.1895 16.92L13.0564 15.9289L13.0554 15.929L13.1895 16.92ZM15.7995 15.7995L16.5062 16.507L16.5066 16.5066L15.7995 15.7995ZM16.92 13.1895L15.9289 13.056L15.9289 13.0564L16.92 13.1895ZM16.92 4.80975L15.9289 4.9429L15.9289 4.94311L16.92 4.80975ZM15.7995 2.2005L16.507 1.49379L16.5066 1.49339L15.7995 2.2005ZM13.1895 1.08L13.056 2.07106L13.0564 2.07111L13.1895 1.08ZM11.4803 15.9165H10.4803V16.9356L11.4991 16.9163L11.4803 15.9165ZM13.0402 15.8055L13.1631 16.798L13.1736 16.7966L13.0402 15.8055ZM15.8055 13.0395L16.7966 13.1728L16.7967 13.1722L15.8055 13.0395ZM15.8055 4.9605L16.7967 4.82784L16.7966 4.82722L15.8055 4.9605ZM15.0037 2.9955L15.7115 2.28901L15.7102 2.28777L15.0037 2.9955ZM13.0395 2.1945L13.1728 1.20334L13.16 1.20179L13.0395 2.1945ZM11.4518 2.08275L11.4715 1.08294L10.4518 1.06284V2.08275H11.4518ZM11.544 3.24075L10.7773 3.88277L10.7788 3.88451L11.544 3.24075ZM11.8867 3.51075L11.3926 4.38012L11.3937 4.38073L11.8867 3.51075ZM13.341 6.06825L12.341 6.06825L12.341 6.0684L13.341 6.06825ZM9 7.63125L9.77057 6.9939L9 6.06226L8.22943 6.9939L9 7.63125ZM4.659 6.0675L5.659 6.06796V6.0675L4.659 6.0675ZM6.11325 3.51L6.60602 4.38016L6.60742 4.37937L6.11325 3.51ZM6.45525 3.24L5.68856 2.59798L5.68703 2.59982L6.45525 3.24ZM6.54825 2.08275H7.54825V1.05279L6.51874 1.08319L6.54825 2.08275ZM4.9605 2.19525L5.09302 3.18643L5.09437 3.18625L4.9605 2.19525ZM2.9955 2.99625L2.28839 2.28914L2.28777 2.28976L2.9955 2.99625ZM2.1945 4.9605L1.20342 4.82722L1.20334 4.82784L2.1945 4.9605ZM2.1945 13.0395L1.20334 13.1722L1.20342 13.1728L2.1945 13.0395ZM2.99625 15.0045L2.28852 15.711L2.28976 15.7122L2.99625 15.0045ZM4.9605 15.8055L4.82721 16.7967L4.83984 16.7982L4.9605 15.8055ZM6.57675 15.918L6.55871 16.9178L7.57675 16.9362V15.918H6.57675ZM6.48375 14.793L7.24737 14.1473L7.23804 14.1363L7.2284 14.1255L6.48375 14.793ZM6.14175 14.523L5.64923 15.3933L5.65724 15.3978L5.66534 15.4022L6.14175 14.523ZM4.6875 11.9655L3.6875 11.9653V11.9655H4.6875ZM9.0285 10.4033L8.25793 11.0406L9.0285 11.9722L9.79907 11.0406L9.0285 10.4033ZM13.3695 11.9662L12.3695 11.9661V11.9662L13.3695 11.9662ZM11.9153 14.5237L12.3905 15.4036L12.3993 15.3988L12.408 15.3939L11.9153 14.5237ZM11.5725 14.7938L10.8284 14.1257L10.8166 14.1388L10.8053 14.1523L11.5725 14.7938ZM7.70175 15.9352H6.70175V16.9303L7.69675 16.9352L7.70175 15.9352ZM9 15.9375L9.00103 14.9375L8.99893 14.9375L9 15.9375ZM10.3553 15.9345L10.3613 16.9345L11.3553 16.9285V15.9345H10.3553ZM10.7108 14.0707L9.95564 13.4152L9.95027 13.4213L9.945 13.4276L10.7108 14.0707ZM11.361 13.5443L11.8452 14.4193L11.8534 14.4146L11.361 13.5443ZM12.2445 11.9655H13.2445V11.9487L13.2439 11.9319L12.2445 11.9655ZM10.9178 10.6826V9.68262V10.6826ZM9.591 11.9655L8.59157 11.9319L8.591 11.9487L8.591 11.9655L9.591 11.9655ZM9.0285 12.528L9.0285 13.528L9.0285 12.528ZM8.466 11.9655L7.466 11.9655L7.466 11.9655L8.466 11.9655ZM5.8125 11.9655L4.8125 11.9655L5.8125 11.9655ZM6.696 13.5443L7.18991 12.6747L7.18944 12.6745L6.696 13.5443ZM7.34625 14.0707L6.5799 14.7132L6.5805 14.7139L7.34625 14.0707ZM7.31775 3.963L8.07234 4.6192L8.07861 4.61199L8.08474 4.60466L7.31775 3.963ZM6.6675 4.48875L6.18382 3.61343L6.17406 3.61897L6.6675 4.48875ZM5.784 6.0675L4.784 6.0675V6.0675L5.784 6.0675ZM8.4375 6.0675L7.4375 6.0675V6.0675L8.4375 6.0675ZM9 5.505V4.505V5.505ZM9.5625 6.0675L10.5625 6.0675L10.5625 6.0675L9.5625 6.0675ZM12.216 6.0675H11.216V6.0675L12.216 6.0675ZM11.3325 4.48875L11.826 3.61892L11.8162 3.61349L11.3325 4.48875ZM10.6823 3.963L9.9165 4.60613L9.92202 4.61271L9.92766 4.6192L10.6823 3.963ZM10.3268 2.0655H11.3268V1.07161L10.3329 1.06552L10.3268 2.0655ZM9 2.0625L8.99895 3.0625L9.00105 3.0625L9 2.0625ZM8.95725 0.9375V-0.0625C7.25243 -0.0625 5.81726 -0.0645841 4.67639 0.0889322L4.80975 1.08L4.94311 2.07107C5.92024 1.93958 7.19857 1.9375 8.95725 1.9375V0.9375ZM4.80975 1.08L4.6766 0.0889045C3.48241 0.249342 2.38159 0.606184 1.49379 1.493L2.2005 2.2005L2.90721 2.908C3.36191 2.45382 3.97109 2.20166 4.9429 2.0711L4.80975 1.08ZM2.2005 2.2005L1.49339 1.49339C0.605146 2.38164 0.249238 3.48311 0.0888924 4.67744L1.08 4.8105L2.07111 4.94356C2.20176 3.97039 2.45335 3.36186 2.90761 2.90761L2.2005 2.2005ZM1.08 4.8105L0.0889447 4.67705C-0.0645881 5.81723 -0.0625 7.25248 -0.0625 8.95725H0.9375H1.9375C1.9375 7.19852 1.93959 5.92027 2.07106 4.94395L1.08 4.8105ZM0.9375 8.95725H-0.0625V9.04275H0.9375H1.9375V8.95725H0.9375ZM0.9375 9.04275H-0.0625C-0.0625 10.7476 -0.0645841 12.1827 0.0889322 13.3236L1.08 13.1902L2.07107 13.0569C1.93958 12.0798 1.9375 10.8014 1.9375 9.04275H0.9375ZM1.08 13.1902L0.0889045 13.3234C0.249342 14.5176 0.606184 15.6184 1.493 16.5062L2.2005 15.7995L2.908 15.0928C2.45382 14.6381 2.20166 14.0289 2.0711 13.0571L1.08 13.1902ZM2.2005 15.7995L1.49339 16.5066C2.38164 17.3949 3.48311 17.7508 4.67744 17.9111L4.8105 16.92L4.94356 15.9289C3.97039 15.7982 3.36186 15.5466 2.90761 15.0924L2.2005 15.7995ZM4.8105 16.92L4.67718 17.9111C5.36653 18.0038 6.15075 18.0389 7.01991 18.0534L7.0365 17.0535L7.05309 16.0536C6.20475 16.0396 5.51447 16.0057 4.94382 15.9289L4.8105 16.92ZM7.0365 17.0535L6.86667 18.039C7.03396 18.0678 7.20476 18.0698 7.37267 18.045L7.22625 17.0557L7.07983 16.0665C7.1218 16.0603 7.1645 16.0608 7.20633 16.068L7.0365 17.0535ZM7.22625 17.0557L7.21624 18.0557C7.7973 18.0615 8.37838 18.0638 8.95946 18.0625L8.95725 17.0625L8.95504 16.0625C8.38211 16.0638 7.80917 16.0615 7.23626 16.0558L7.22625 17.0557ZM8.95725 17.0625V18.0625H9.04275V17.0625V16.0625H8.95725V17.0625ZM9.04275 17.0625V18.0625C9.68602 18.0625 10.2873 18.0625 10.84 18.0549L10.8263 17.055L10.8125 16.0551C10.2762 16.0625 9.68948 16.0625 9.04275 16.0625V17.0625ZM10.8263 17.055L10.6748 18.0435C10.8514 18.0705 11.0312 18.0678 11.2068 18.0355L11.0258 17.052L10.8447 16.0685C10.8886 16.0604 10.9335 16.0598 10.9777 16.0665L10.8263 17.055ZM11.0258 17.052L11.0438 18.0518C11.886 18.0367 12.6493 18.0022 13.3236 17.911L13.1895 16.92L13.0554 15.929C12.4997 16.0043 11.8305 16.0373 11.0077 16.0522L11.0258 17.052ZM13.1895 16.92L13.3226 17.9111C14.5175 17.7507 15.6184 17.3939 16.5062 16.507L15.7995 15.7995L15.0928 15.092C14.6381 15.5461 14.029 15.7983 13.0564 15.9289L13.1895 16.92ZM15.7995 15.7995L16.5066 16.5066C17.3949 15.6184 17.7508 14.5169 17.9111 13.3226L16.92 13.1895L15.9289 13.0564C15.7982 14.0296 15.5466 14.6381 15.0924 15.0924L15.7995 15.7995ZM16.92 13.1895L17.9111 13.323C18.0646 12.1828 18.0625 10.7475 18.0625 9.04275H17.0625H16.0625C16.0625 10.8015 16.0604 12.0797 15.9289 13.056L16.92 13.1895ZM17.0625 9.04275H18.0625V8.95725H17.0625H16.0625V9.04275H17.0625ZM17.0625 8.95725H18.0625C18.0625 7.25243 18.0646 5.81726 17.9111 4.67639L16.92 4.80975L15.9289 4.94311C16.0604 5.92024 16.0625 7.19857 16.0625 8.95725H17.0625ZM16.92 4.80975L17.9111 4.6766C17.7507 3.48241 17.3938 2.38159 16.507 1.49379L15.7995 2.2005L15.092 2.90721C15.5462 3.36191 15.7983 3.97109 15.9289 4.9429L16.92 4.80975ZM15.7995 2.2005L16.5066 1.49339C15.6184 0.605146 14.5169 0.249238 13.3226 0.0888924L13.1895 1.08L13.0564 2.07111C14.0296 2.20176 14.6381 2.45335 15.0924 2.90761L15.7995 2.2005ZM13.1895 1.08L13.323 0.0889447C12.1828 -0.0645881 10.7475 -0.0625 9.04275 -0.0625V0.9375V1.9375C10.8015 1.9375 12.0797 1.93959 13.056 2.07106L13.1895 1.08ZM9.04275 0.9375V-0.0625H8.95725V0.9375V1.9375H9.04275V0.9375ZM11.4803 15.9165L11.4991 16.9163C12.0555 16.9058 12.6109 16.8663 13.1631 16.7979L13.0402 15.8055L12.9174 14.8131C12.4342 14.8729 11.9482 14.9075 11.4614 14.9167L11.4803 15.9165ZM13.0402 15.8055L13.1736 16.7966C14.244 16.6525 15.0679 16.3539 15.7109 15.7109L15.0037 15.0037L14.2966 14.2966C14.0861 14.5071 13.7535 14.7005 12.9069 14.8144L13.0402 15.8055ZM15.0037 15.0037L15.7109 15.7109C16.3548 15.0669 16.6526 14.2436 16.7966 13.1728L15.8055 13.0395L14.8144 12.9062C14.7004 13.7539 14.5077 14.0856 14.2966 14.2966L15.0037 15.0037ZM15.8055 13.0395L16.7967 13.1722C16.9381 12.1154 16.9375 10.7553 16.9375 9H15.9375H14.9375C14.9375 10.8117 14.9339 12.0136 14.8143 12.9068L15.8055 13.0395ZM15.9375 9H16.9375C16.9375 7.24471 16.9381 5.88462 16.7967 4.82784L15.8055 4.9605L14.8143 5.09316C14.9339 5.98638 14.9375 7.18829 14.9375 9H15.9375ZM15.8055 4.9605L16.7966 4.82722C16.6525 3.75588 16.3539 2.93252 15.7115 2.28901L15.0037 2.9955L14.296 3.70199C14.5071 3.91348 14.7005 4.24662 14.8144 5.09378L15.8055 4.9605ZM15.0037 2.9955L15.7102 2.28777C15.0665 1.64516 14.2436 1.34743 13.1728 1.20342L13.0395 2.1945L12.9062 3.18558C13.7539 3.29957 14.086 3.49234 14.2973 3.70323L15.0037 2.9955ZM13.0395 2.1945L13.16 1.20179C12.5995 1.13374 12.036 1.09408 11.4715 1.08294L11.4518 2.08275L11.432 3.08256C11.9291 3.09236 12.4254 3.12729 12.919 3.18721L13.0395 2.1945ZM11.4518 2.08275H10.4518V3.04575H11.4518H12.4518V2.08275H11.4518ZM11.4518 3.04575H10.4518C10.4518 3.37859 10.5922 3.66173 10.7773 3.88277L11.544 3.24075L12.3107 2.59873C12.3234 2.61396 12.3597 2.66083 12.3927 2.74038C12.4278 2.82515 12.4518 2.9293 12.4518 3.04575H11.4518ZM11.544 3.24075L10.7788 3.88451C10.9569 4.0962 11.1823 4.26057 11.3926 4.38012L11.8867 3.51075L12.3809 2.64138C12.3485 2.62295 12.3248 2.60644 12.3099 2.59476C12.2938 2.5821 12.2962 2.58145 12.3092 2.59699L11.544 3.24075ZM11.8867 3.51075L11.3937 4.38073C11.9316 4.68564 12.341 5.42399 12.341 6.06825H13.341H14.341C14.341 4.76251 13.5939 3.32886 12.3798 2.64077L11.8867 3.51075ZM13.341 6.06825L12.341 6.0684C12.341 6.36722 12.2489 6.65878 12.0771 6.90328L12.8953 7.47821L13.7135 8.05314C14.122 7.47181 14.3411 6.77859 14.341 6.0681L13.341 6.06825ZM12.8953 7.47821L12.0771 6.90328C11.9053 7.14777 11.6622 7.3333 11.3811 7.43453L11.7198 8.3754L12.0586 9.31627C12.7271 9.07558 13.305 8.63447 13.7135 8.05314L12.8953 7.47821ZM11.7198 8.3754L11.3811 7.43453C11.0999 7.53576 10.7944 7.54776 10.5061 7.4689L10.2422 8.43345L9.97832 9.398C10.6636 9.5855 11.3901 9.55696 12.0586 9.31627L11.7198 8.3754ZM10.2422 8.43345L10.5061 7.4689C10.2179 7.39004 9.96103 7.22416 9.77057 6.9939L9 7.63125L8.22943 8.2686C8.68226 8.81609 9.29301 9.2105 9.97832 9.398L10.2422 8.43345ZM9 7.63125L8.22943 6.9939C8.03895 7.22419 7.78204 7.39009 7.49376 7.46893L7.75759 8.4335L8.02142 9.39807C8.70683 9.2106 9.31768 8.81616 9.77057 8.2686L9 7.63125ZM7.75759 8.4335L7.49376 7.46893C7.20549 7.54778 6.89991 7.53574 6.61874 7.43445L6.27983 8.37527L5.94092 9.31609C6.60945 9.55692 7.33602 9.58555 8.02142 9.39807L7.75759 8.4335ZM6.27983 8.37527L6.61874 7.43445C6.33756 7.33317 6.0945 7.14757 5.92273 6.903L5.1044 7.47775L4.28607 8.05249C4.69447 8.63399 5.27239 9.07527 5.94092 9.31609L6.27983 8.37527ZM5.1044 7.47775L5.92273 6.903C5.75097 6.65844 5.65886 6.36682 5.659 6.06796L4.659 6.0675L3.659 6.06704C3.65868 6.77763 3.87766 7.471 4.28607 8.05249L5.1044 7.47775ZM4.659 6.0675L5.659 6.0675C5.659 5.42282 6.06794 4.68487 6.60602 4.38016L6.11325 3.51L5.62048 2.63984C4.40506 3.32813 3.659 4.76218 3.659 6.0675L4.659 6.0675ZM6.11325 3.51L6.60742 4.37937C6.81701 4.26023 7.04452 4.09493 7.22347 3.88018L6.45525 3.24L5.68703 2.59982C5.69113 2.59489 5.69431 2.5914 5.69633 2.58927C5.69835 2.58712 5.69946 2.58606 5.69951 2.58602C5.69956 2.58597 5.69876 2.58673 5.69701 2.58824C5.69527 2.58974 5.69274 2.59185 5.68938 2.5945C5.67503 2.6058 5.65156 2.62217 5.61908 2.64063L6.11325 3.51ZM6.45525 3.24L7.22194 3.88202C7.40197 3.66703 7.54825 3.38393 7.54825 3.045H6.54825H5.54825C5.54825 2.78407 5.66303 2.62847 5.68856 2.59798L6.45525 3.24ZM6.54825 3.045H7.54825V2.08275H6.54825H5.54825V3.045H6.54825ZM6.54825 2.08275L6.51874 1.08319C5.89368 1.10164 5.33162 1.13603 4.82663 1.20425L4.9605 2.19525L5.09437 3.18625C5.49988 3.13147 5.98332 3.09986 6.57776 3.08231L6.54825 2.08275ZM4.9605 2.19525L4.82798 1.20407C3.75701 1.34726 2.93259 1.64495 2.28839 2.28914L2.9955 2.99625L3.70261 3.70336C3.91341 3.49255 4.24549 3.29974 5.09302 3.18643L4.9605 2.19525ZM2.9955 2.99625L2.28777 2.28976C1.64516 2.93351 1.34743 3.75638 1.20342 4.82722L2.1945 4.9605L3.18558 5.09378C3.29957 4.24612 3.49234 3.91399 3.70323 3.70274L2.9955 2.99625ZM2.1945 4.9605L1.20334 4.82784C1.06189 5.88462 1.0625 7.24471 1.0625 9H2.0625H3.0625C3.0625 7.18829 3.06611 5.98638 3.18566 5.09316L2.1945 4.9605ZM2.0625 9H1.0625C1.0625 10.7553 1.06189 12.1154 1.20334 13.1722L2.1945 13.0395L3.18566 12.9068C3.06611 12.0136 3.0625 10.8117 3.0625 9H2.0625ZM2.1945 13.0395L1.20342 13.1728C1.3475 14.2441 1.64615 15.0675 2.28852 15.711L2.99625 15.0045L3.70398 14.298C3.49285 14.0865 3.2995 13.7534 3.18558 12.9062L2.1945 13.0395ZM2.99625 15.0045L2.28976 15.7122C2.93351 16.3548 3.75638 16.6526 4.82722 16.7966L4.9605 15.8055L5.09378 14.8144C4.24612 14.7004 3.91399 14.5077 3.70274 14.2968L2.99625 15.0045ZM4.9605 15.8055L4.83984 16.7982C5.41037 16.8675 5.98408 16.9075 6.55871 16.9178L6.57675 15.918L6.59479 14.9182C6.08877 14.909 5.58356 14.8739 5.08116 14.8128L4.9605 15.8055ZM6.57675 15.918H7.57675V14.988H6.57675H5.57675V15.918H6.57675ZM6.57675 14.988H7.57675C7.57675 14.6533 7.43478 14.369 7.24737 14.1473L6.48375 14.793L5.72013 15.4387C5.7072 15.4234 5.67023 15.3761 5.63666 15.2957C5.60081 15.2098 5.57675 15.1048 5.57675 14.988H6.57675ZM6.48375 14.793L7.2284 14.1255C7.05414 13.9311 6.84771 13.7682 6.61816 13.6438L6.14175 14.523L5.66534 15.4022C5.69308 15.4173 5.71804 15.437 5.7391 15.4605L6.48375 14.793ZM6.14175 14.523L6.63427 13.6527C6.09718 13.3487 5.6875 12.6102 5.6875 11.9655H4.6875H3.6875C3.6875 13.2708 4.43432 14.7058 5.64923 15.3933L6.14175 14.523ZM4.6875 11.9655L5.6875 11.9657C5.68755 11.6669 5.77978 11.3754 5.95162 11.131L5.13355 10.5558L4.31548 9.98071C3.90691 10.5619 3.68761 11.2549 3.6875 11.9653L4.6875 11.9655ZM5.13355 10.5558L5.95162 11.131C6.12345 10.8865 6.36652 10.7011 6.64766 10.5999L6.30903 9.65897L5.97041 8.71805C5.30198 8.95861 4.72405 9.39955 4.31548 9.98071L5.13355 10.5558ZM6.30903 9.65897L6.64766 10.5999C6.92879 10.4987 7.23429 10.4868 7.52248 10.5656L7.78646 9.6011L8.05043 8.63657C7.36523 8.44904 6.63885 8.47749 5.97041 8.71805L6.30903 9.65897ZM7.78646 9.6011L7.52248 10.5656C7.81066 10.6445 8.0675 10.8104 8.25793 11.0406L9.0285 10.4033L9.79907 9.7659C9.34629 9.21848 8.73564 8.8241 8.05043 8.63657L7.78646 9.6011ZM9.0285 10.4033L9.79907 11.0406C9.98953 10.8103 10.2464 10.6445 10.5346 10.5656L10.2707 9.60105L10.0068 8.6365C9.32151 8.824 8.71076 9.21841 8.25793 9.7659L9.0285 10.4033ZM10.2707 9.60105L10.5346 10.5656C10.8229 10.4867 11.1284 10.4987 11.4096 10.6L11.7483 9.6591L12.0871 8.71823C11.4186 8.47754 10.6921 8.449 10.0068 8.6365L10.2707 9.60105ZM11.7483 9.6591L11.4096 10.6C11.6907 10.7012 11.9338 10.8867 12.1056 11.1312L12.9238 10.5563L13.742 9.98136C13.3335 9.40003 12.7556 8.95892 12.0871 8.71823L11.7483 9.6591ZM12.9238 10.5563L12.1056 11.1312C12.2774 11.3757 12.3695 11.6673 12.3695 11.9661L13.3695 11.9662L14.3695 11.9664C14.3696 11.2559 14.1505 10.5627 13.742 9.98136L12.9238 10.5563ZM13.3695 11.9662L12.3695 11.9662C12.3695 12.6103 11.9605 13.3489 11.4225 13.6536L11.9153 14.5237L12.408 15.3939C13.6235 14.7056 14.3695 13.2707 14.3695 11.9662L13.3695 11.9662ZM11.9153 14.5237L11.44 13.6439C11.21 13.7682 11.0031 13.9311 10.8284 14.1257L11.5725 14.7938L12.3166 15.4618C12.3377 15.4383 12.3627 15.4186 12.3905 15.4036L11.9153 14.5237ZM11.5725 14.7938L10.8053 14.1523C10.6242 14.369 10.4803 14.6519 10.4803 14.9888H11.4803H12.4803C12.4803 15.2461 12.3678 15.4015 12.3397 15.4352L11.5725 14.7938ZM11.4803 14.9888H10.4803V15.9165H11.4803H12.4803V14.9888H11.4803ZM7.70175 15.9352L7.69675 16.9352C8.09907 16.9372 8.53387 16.938 9.00107 16.9375L9 15.9375L8.99893 14.9375C8.53513 14.938 8.10443 14.9373 7.70675 14.9353L7.70175 15.9352ZM9 15.9375L8.99897 16.9375C9.48794 16.938 9.94206 16.937 10.3613 16.9345L10.3553 15.9345L10.3492 14.9345C9.93544 14.937 9.48606 14.938 9.00103 14.9375L9 15.9375ZM10.3553 15.9345H11.3553V14.9888H10.3553H9.35525V15.9345H10.3553ZM10.3553 14.9888H11.3553C11.3553 14.912 11.3864 14.8212 11.4765 14.7139L10.7108 14.0707L9.945 13.4276C9.6496 13.7793 9.35525 14.3095 9.35525 14.9888H10.3553ZM10.7108 14.0707L11.4659 14.7263C11.5733 14.6026 11.7017 14.4986 11.8452 14.4192L11.361 13.5443L10.8768 12.6693C10.5285 12.862 10.2167 13.1145 9.95564 13.4152L10.7108 14.0707ZM11.361 13.5443L11.8534 14.4146C12.2991 14.1624 12.6375 13.7643 12.8616 13.3634C13.0873 12.9595 13.2445 12.4684 13.2445 11.9655H12.2445H11.2445C11.2445 12.0649 11.2078 12.2229 11.1157 12.3877C11.022 12.5555 10.9186 12.6456 10.8686 12.6739L11.361 13.5443ZM12.2445 11.9655L13.2439 11.9319C13.2236 11.3285 12.9697 10.7566 12.5356 10.3369L11.8405 11.0558L11.1454 11.7747C11.2065 11.8337 11.2422 11.9142 11.2451 11.9991L12.2445 11.9655ZM11.8405 11.0558L12.5356 10.3369C12.1016 9.91722 11.5215 9.68262 10.9178 9.68262L10.9178 10.6826L10.9178 11.6826C11.0027 11.6826 11.0843 11.7156 11.1454 11.7747L11.8405 11.0558ZM10.9178 10.6826V9.68262C10.314 9.68262 9.73388 9.91722 9.29985 10.3369L9.99498 11.0558L10.6901 11.7747C10.7512 11.7156 10.8328 11.6826 10.9178 11.6826V10.6826ZM9.99498 11.0558L9.29985 10.3369C8.86582 10.7566 8.61186 11.3285 8.59157 11.9319L9.591 11.9655L10.5904 11.9991C10.5933 11.9142 10.629 11.8337 10.6901 11.7747L9.99498 11.0558ZM9.591 11.9655L8.591 11.9655C8.591 11.8495 8.6371 11.7382 8.71914 11.6561L9.42625 12.3632L10.1334 13.0704C10.4264 12.7773 10.591 12.3799 10.591 11.9655L9.591 11.9655ZM9.42625 12.3632L8.71914 11.6561C8.80118 11.5741 8.91246 11.528 9.0285 11.528L9.0285 12.528L9.0285 13.528C9.44291 13.528 9.84033 13.3634 10.1334 13.0704L9.42625 12.3632ZM9.0285 12.528L9.0285 11.528C9.14454 11.528 9.25581 11.5741 9.33786 11.6561L8.63075 12.3632L7.92365 13.0704C8.21667 13.3634 8.6141 13.528 9.0285 13.528L9.0285 12.528ZM8.63075 12.3632L9.33786 11.6561C9.41991 11.7382 9.466 11.8495 9.466 11.9655L8.466 11.9655L7.466 11.9655C7.466 12.3799 7.63062 12.7773 7.92365 13.0704L8.63075 12.3632ZM8.466 11.9655L9.466 11.9655C9.466 11.3484 9.22086 10.7566 8.78451 10.3202L8.0774 11.0273L7.3703 11.7345C7.43157 11.7957 7.466 11.8788 7.466 11.9655L8.466 11.9655ZM8.0774 11.0273L8.78451 10.3202C8.34816 9.88389 7.75634 9.63875 7.13925 9.63875V10.6388V11.6388C7.22591 11.6388 7.30902 11.6732 7.3703 11.7345L8.0774 11.0273ZM7.13925 10.6388V9.63875C6.52216 9.63875 5.93034 9.88389 5.49399 10.3202L6.2011 11.0273L6.9082 11.7345C6.96948 11.6732 7.05259 11.6388 7.13925 11.6388V10.6388ZM6.2011 11.0273L5.49399 10.3202C5.05764 10.7566 4.8125 11.3484 4.8125 11.9655L5.8125 11.9655L6.8125 11.9655C6.8125 11.8788 6.84693 11.7957 6.9082 11.7345L6.2011 11.0273ZM5.8125 11.9655H4.8125C4.8125 12.4685 4.96976 12.9594 5.19548 13.3632C5.4196 13.7641 5.75777 14.1617 6.20256 14.414L6.696 13.5443L7.18944 12.6745C7.13848 12.6456 7.0349 12.5549 6.94121 12.3873C6.84912 12.2226 6.8125 12.0648 6.8125 11.9655H5.8125ZM6.696 13.5443L6.20209 14.4138C6.35421 14.5002 6.48826 14.6039 6.5799 14.7132L7.34625 14.0707L8.1126 13.4283C7.82324 13.0831 7.47879 12.8388 7.18991 12.6747L6.696 13.5443ZM7.34625 14.0707L6.5805 14.7139C6.6706 14.8212 6.70175 14.912 6.70175 14.9888H7.70175H8.70175C8.70175 14.3095 8.4074 13.7793 8.112 13.4276L7.34625 14.0707ZM7.70175 14.9888H6.70175V15.9352H7.70175H8.70175V14.9888H7.70175ZM7.67325 2.0655H6.67325V3.045H7.67325H8.67325V2.0655H7.67325ZM7.67325 3.045H6.67325C6.67325 3.12021 6.64207 3.2122 6.55076 3.32134L7.31775 3.963L8.08474 4.60466C8.37743 4.2548 8.67325 3.72429 8.67325 3.045H7.67325ZM7.31775 3.963L6.56316 3.3068C6.45564 3.43044 6.32726 3.53424 6.18385 3.61349L6.6675 4.48875L7.15115 5.36401C7.49943 5.17156 7.81123 4.91946 8.07234 4.6192L7.31775 3.963ZM6.6675 4.48875L6.17406 3.61897C5.72927 3.87131 5.3911 4.26889 5.16698 4.66979C4.94126 5.07356 4.784 5.56455 4.784 6.0675H5.784H6.784C6.784 5.9682 6.82062 5.81044 6.91271 5.64571C7.0064 5.47811 7.10998 5.38744 7.16094 5.35853L6.6675 4.48875ZM5.784 6.0675L4.784 6.0675C4.784 6.68459 5.02914 7.27641 5.46549 7.71276L6.1726 7.00565L6.8797 6.29855C6.81843 6.23727 6.784 6.15416 6.784 6.0675L5.784 6.0675ZM6.1726 7.00565L5.46549 7.71276C5.90184 8.14911 6.49366 8.39425 7.11075 8.39425V7.39425V6.39425C7.02409 6.39425 6.94098 6.35982 6.8797 6.29855L6.1726 7.00565ZM7.11075 7.39425V8.39425C7.72784 8.39425 8.31966 8.14911 8.75601 7.71276L8.0489 7.00565L7.3418 6.29855C7.28052 6.35982 7.19741 6.39425 7.11075 6.39425V7.39425ZM8.0489 7.00565L8.75601 7.71276C9.19236 7.27641 9.4375 6.68459 9.4375 6.0675L8.4375 6.0675L7.4375 6.0675C7.4375 6.15416 7.40307 6.23727 7.3418 6.29855L8.0489 7.00565ZM8.4375 6.0675L9.4375 6.0675C9.4375 6.18353 9.39141 6.29481 9.30936 6.37686L8.60225 5.66975L7.89515 4.96265C7.60212 5.25567 7.4375 5.6531 7.4375 6.0675L8.4375 6.0675ZM8.60225 5.66975L9.30936 6.37686C9.22731 6.45891 9.11603 6.505 9 6.505V5.505V4.505C8.5856 4.505 8.18817 4.66962 7.89515 4.96265L8.60225 5.66975ZM9 5.505L9 6.505C8.88397 6.505 8.77269 6.45891 8.69064 6.37686L9.39775 5.66975L10.1049 4.96265C9.81183 4.66962 9.4144 4.505 9 4.505L9 5.505ZM9.39775 5.66975L8.69064 6.37686C8.60859 6.29481 8.5625 6.18353 8.5625 6.0675L9.5625 6.0675L10.5625 6.0675C10.5625 5.6531 10.3979 5.25567 10.1049 4.96265L9.39775 5.66975ZM9.5625 6.0675L8.5625 6.0675C8.5625 6.37305 8.62268 6.67561 8.73961 6.95791L9.66349 6.57523L10.5874 6.19254C10.571 6.1529 10.5625 6.11041 10.5625 6.0675L9.5625 6.0675ZM9.66349 6.57523L8.73961 6.95791C8.85654 7.2402 9.02793 7.4967 9.24399 7.71276L9.9511 7.00565L10.6582 6.29855C10.6279 6.2682 10.6038 6.23218 10.5874 6.19254L9.66349 6.57523ZM9.9511 7.00565L9.24399 7.71276C9.46005 7.92882 9.71655 8.10021 9.99884 8.21714L10.3815 7.29326L10.7642 6.36938C10.7246 6.35296 10.6885 6.32889 10.6582 6.29855L9.9511 7.00565ZM10.3815 7.29326L9.99884 8.21714C10.2811 8.33407 10.5837 8.39425 10.8893 8.39425V7.39425V6.39425C10.8463 6.39425 10.8039 6.3858 10.7642 6.36938L10.3815 7.29326ZM10.8893 7.39425V8.39425C11.1948 8.39425 11.4974 8.33407 11.7797 8.21714L11.397 7.29326L11.0143 6.36938C10.9746 6.3858 10.9322 6.39425 10.8893 6.39425V7.39425ZM11.397 7.29326L11.7797 8.21714C12.062 8.10021 12.3185 7.92882 12.5345 7.71276L11.8274 7.00565L11.1203 6.29855C11.09 6.32889 11.0539 6.35296 11.0143 6.36938L11.397 7.29326ZM11.8274 7.00565L12.5345 7.71276C12.7506 7.4967 12.922 7.2402 13.0389 6.95791L12.115 6.57523L11.1911 6.19254C11.1747 6.23218 11.1506 6.2682 11.1203 6.29855L11.8274 7.00565ZM12.115 6.57523L13.0389 6.95791C13.1558 6.67561 13.216 6.37305 13.216 6.0675L12.216 6.0675L11.216 6.0675C11.216 6.11041 11.2075 6.1529 11.1911 6.19254L12.115 6.57523ZM12.216 6.0675L13.216 6.0675C13.216 5.56455 13.0587 5.07356 12.833 4.66979C12.6089 4.26889 12.2707 3.87131 11.8259 3.61897L11.3325 4.48875L10.8391 5.35853C10.89 5.38744 10.9936 5.47811 11.0873 5.64571C11.1794 5.81044 11.216 5.9682 11.216 6.0675L12.216 6.0675ZM11.3325 4.48875L11.8162 3.61349C11.6727 3.53424 11.5444 3.43044 11.4368 3.3068L10.6823 3.963L9.92766 4.6192C10.1888 4.91946 10.5006 5.17156 10.8488 5.36401L11.3325 4.48875ZM10.6823 3.963L11.448 3.31987C11.3579 3.21259 11.3268 3.1218 11.3268 3.045H10.3268H9.32675C9.32675 3.7242 9.6211 4.25441 9.9165 4.60613L10.6823 3.963ZM10.3268 3.045H11.3268V2.0655H10.3268H9.32675V3.045H10.3268ZM10.3268 2.0655L10.3329 1.06552C9.92213 1.063 9.47746 1.062 8.99895 1.0625L9 2.0625L9.00105 3.0625C9.47554 3.062 9.91537 3.063 10.3206 3.06548L10.3268 2.0655ZM9 2.0625L9.00105 1.0625C8.52254 1.062 8.07762 1.063 7.66638 1.06552L7.6725 2.0655L7.67862 3.06548C8.08438 3.063 8.52446 3.062 8.99895 3.0625L9 2.0625Z" fill="white" mask="url(#path-1-inside-1_327_7490)"/>
</svg>
