<svg width="19" height="20" viewBox="0 0 19 20" fill="none" xmlns="http://www.w3.org/2000/svg">
<path fill-rule="evenodd" clip-rule="evenodd" d="M8 5.976H9.105C9.36139 4.76793 10.0556 3.69741 11.054 2.97055C12.0525 2.24369 13.2845 1.91188 14.5129 2.03901C15.7413 2.16613 16.8793 2.7432 17.7077 3.65912C18.5361 4.57503 18.9964 5.76503 19 7V14C19.0001 14.9342 18.7384 15.8498 18.2446 16.6429C17.7508 17.436 17.0447 18.0749 16.2064 18.4872C15.368 18.8994 14.4309 19.0686 13.5013 18.9754C12.5717 18.8822 11.6869 18.5304 10.947 17.96C10.211 17.4 9.68 16.843 9.226 16.365C8.476 15.576 7.931 15.005 7.011 15H5C4.046 15 3.49 15.346 3.132 15.858C2.734 16.426 2.5 17.317 2.5 18.5C2.5 18.7652 2.39464 19.0196 2.20711 19.2071C2.01957 19.3946 1.76522 19.5 1.5 19.5C1.23478 19.5 0.98043 19.3946 0.792893 19.2071C0.605357 19.0196 0.5 18.7652 0.5 18.5C0.5 17.108 0.766 15.749 1.493 14.71C2.248 13.633 3.419 13.018 4.931 13C5.026 12.99 5.122 12.986 5.188 12.983C5.31 12.979 5.458 12.976 5.62 12.975C6.15135 12.9712 6.68272 12.9738 7.214 12.983C8.594 12.758 9.476 10.379 9 8L8.53 7.999C8.39 7.997 8.261 7.995 8.154 7.991C8.07984 7.98875 8.00579 7.98374 7.932 7.976C6.951 7.966 6.119 7.751 5.464 7.271C4.787 6.776 4.421 6.088 4.224 5.382C4.032 4.693 3.984 3.934 3.977 3.211C3.972 2.835 3.98 2.388 3.988 1.952C3.994 1.615 4 1.285 4 1C4 0.734784 4.10536 0.48043 4.29289 0.292893C4.48043 0.105357 4.73478 0 5 0C5.26522 0 5.51957 0.105357 5.70711 0.292893C5.89464 0.48043 6 0.734784 6 1C6 1.392 5.993 1.732 5.987 2.058C5.979 2.436 5.972 2.793 5.977 3.188C5.984 3.867 6.031 4.414 6.151 4.844C6.266 5.258 6.432 5.501 6.645 5.657C6.866 5.819 7.261 5.977 8 5.977M10.712 11.899C10.6787 11.9943 10.6437 12.0883 10.607 12.181C10.3568 12.8146 9.98902 13.3951 9.523 13.892C9.954 14.222 10.293 14.582 10.556 14.862C10.5967 14.906 10.6363 14.9477 10.675 14.987C11.128 15.464 11.562 15.917 12.157 16.369L12.163 16.373L12.169 16.378C12.6131 16.7201 13.1441 16.931 13.7019 16.9867C14.2597 17.0424 14.822 16.9407 15.3249 16.6932C15.8278 16.4456 16.2514 16.062 16.5474 15.586C16.8435 15.11 17.0003 14.5606 17 14V11.125C16.7856 11.0367 16.5646 10.9655 16.339 10.912C15.66 10.755 15.097 10.818 14.709 11.207C13.597 12.318 12.16 12.255 11.214 12.037C11.0454 11.9976 10.8786 11.9509 10.714 11.897M11.111 9.917C11.291 9.98694 11.4758 10.0438 11.664 10.087C12.343 10.244 12.906 10.181 13.294 9.792C14.406 8.681 15.843 8.744 16.789 8.962C16.8623 8.97933 16.9333 8.99733 17.002 9.016V7C17.0015 6.59536 16.9192 6.195 16.76 5.823C16.6008 5.45099 16.368 5.11504 16.0756 4.83536C15.7832 4.55567 15.4372 4.33803 15.0585 4.19554C14.6798 4.05304 14.2761 3.98863 13.8719 4.00618C13.4676 4.02373 13.0711 4.12287 12.7062 4.29766C12.3412 4.47244 12.0154 4.71924 11.7483 5.02322C11.4812 5.32719 11.2784 5.68206 11.1521 6.06645C11.0257 6.45085 10.9784 6.85685 11.013 7.26L11.151 8.871L11.121 8.881C11.1383 9.231 11.135 9.57667 11.111 9.918" fill="white"/>
</svg>
