<svg width="15" height="21" viewBox="0 0 15 21" fill="none" xmlns="http://www.w3.org/2000/svg">
<path fill-rule="evenodd" clip-rule="evenodd" d="M3.47852 2.10564L12.4785 2.09814L12.4855 11.0981L3.48552 11.1056L3.47852 2.10564ZM9.98252 7.02914C9.98352 8.09564 9.10401 8.93414 7.98401 8.93514C6.86402 8.93614 5.98352 8.09864 5.98252 7.03214C5.98152 5.96564 7.97952 3.60214 7.97952 3.60214C7.97952 3.60214 9.98152 6.03864 9.98252 7.02914Z" fill="#726BEA"/>
<path d="M4.49194 11.9933C4.42628 11.9933 4.36127 12.0063 4.30061 12.0314C4.23996 12.0566 4.18486 12.0935 4.13846 12.1399C4.09205 12.1864 4.05525 12.2415 4.03015 12.3022C4.00505 12.3629 3.99215 12.4279 3.99219 12.4935C3.99222 12.5592 4.00519 12.6242 4.03034 12.6849C4.0555 12.7455 4.09236 12.8006 4.13881 12.847C4.18526 12.8934 4.2404 12.9302 4.30108 12.9553C4.36175 12.9804 4.42678 12.9933 4.49244 12.9933L6.49244 12.9918C6.62505 12.9917 6.7522 12.939 6.84592 12.8452C6.93964 12.7514 6.99225 12.6242 6.99219 12.4915C6.99212 12.3589 6.93938 12.2318 6.84556 12.1381C6.75175 12.0443 6.62455 11.9917 6.49194 11.9918L4.49194 11.9933ZM8.99244 12.4898C8.99237 12.4241 9.00524 12.3591 9.03031 12.2984C9.05537 12.2377 9.09215 12.1826 9.13853 12.1361C9.18491 12.0896 9.24 12.0527 9.30063 12.0275C9.36127 12.0024 9.42628 11.9894 9.49194 11.9893L11.4919 11.9878C11.6245 11.9877 11.7517 12.0403 11.8456 12.1341C11.9394 12.2278 11.9921 12.3549 11.9922 12.4875C11.9923 12.6202 11.9396 12.7474 11.8459 12.8412C11.7522 12.935 11.625 12.9877 11.4924 12.9878L9.49244 12.9893C9.35983 12.9893 9.23265 12.9366 9.13888 12.8428C9.04512 12.7491 8.99244 12.6224 8.99244 12.4898ZM7.99094 18.1023C8.25615 18.1021 8.51043 17.9965 8.69782 17.8089C8.88522 17.6212 8.99039 17.3668 8.99019 17.1015C8.98999 16.8363 8.88444 16.5821 8.69676 16.3947C8.50909 16.2073 8.25465 16.1021 7.98944 16.1023C7.72422 16.1025 7.46995 16.208 7.28255 16.3957C7.09515 16.5834 6.98999 16.8378 6.99019 17.103C6.99039 17.3683 7.09593 17.6225 7.28361 17.8099C7.47129 17.9973 7.72572 18.1025 7.99094 18.1023Z" fill="#726BEA"/>
<path fill-rule="evenodd" clip-rule="evenodd" d="M2.48904 15.6067L4.98904 15.6042L4.99254 20.1042L10.9925 20.0992L10.989 15.5992L13.489 15.5977C13.686 15.5975 13.881 15.5585 14.063 15.4829C14.2449 15.4073 14.4101 15.2967 14.5493 15.1573C14.6884 15.0178 14.7987 14.8524 14.8739 14.6703C14.9491 14.4882 14.9877 14.2931 14.9875 14.0962L14.9775 1.59616C14.9771 1.19842 14.8188 0.817121 14.5373 0.536112C14.2558 0.255103 13.8743 0.0973912 13.4765 0.0976566L2.47654 0.106656C2.27956 0.106788 2.08453 0.145717 1.90259 0.22122C1.72065 0.296723 1.55537 0.407323 1.41617 0.546703C1.27698 0.686084 1.1666 0.851516 1.09134 1.03356C1.01608 1.21559 0.977408 1.41067 0.977539 1.60766L0.98754 14.1077C0.987671 14.3047 1.02662 14.4998 1.10215 14.6817C1.17768 14.8637 1.28833 15.029 1.42776 15.1682C1.5672 15.3074 1.73269 15.4178 1.91478 15.493C2.09688 15.5682 2.29201 15.6069 2.48904 15.6067ZM13.477 1.09766L2.47704 1.10666C2.34452 1.10679 2.21747 1.15953 2.12381 1.25328C2.03015 1.34703 1.97754 1.47413 1.97754 1.60666L1.98754 14.1067C1.98754 14.1724 2.00049 14.2374 2.02565 14.2981C2.05081 14.3588 2.08768 14.4139 2.13416 14.4604C2.18065 14.5068 2.23582 14.5436 2.29654 14.5687C2.35726 14.5938 2.42234 14.6067 2.48804 14.6067L4.98804 14.6042L4.98754 13.6042L10.9875 13.5992L10.988 14.5992L13.488 14.5977C13.5537 14.5977 13.6188 14.5847 13.6795 14.5595C13.7402 14.5344 13.7953 14.4975 13.8418 14.451C13.8882 14.4046 13.925 14.3494 13.9501 14.2887C13.9752 14.2279 13.9881 14.1629 13.988 14.0972L13.978 1.59716C13.978 1.53141 13.9651 1.46631 13.9399 1.40558C13.9147 1.34486 13.8778 1.28969 13.8312 1.24325C13.7847 1.19681 13.7295 1.16 13.6687 1.13493C13.6079 1.10986 13.5428 1.09702 13.477 1.09716M9.98804 14.6002L5.98804 14.6037L5.99204 19.1037L9.99204 19.1002L9.98804 14.6002Z" fill="#726BEA"/>
</svg>
