<svg width="21" height="21" viewBox="0 0 21 21" fill="none" xmlns="http://www.w3.org/2000/svg">
<path d="M20.4769 5.27277L19.4209 15.4958C19.4049 15.6991 19.2983 15.8351 19.1009 15.9038C18.9043 15.9731 18.7329 15.9348 18.5869 15.7888C18.5383 15.7401 18.5016 15.6768 18.4769 15.5988C18.4529 15.5214 18.4429 15.4461 18.4469 15.3728L19.4729 5.38477H10.9499C10.8086 5.38477 10.6899 5.33677 10.5939 5.24077C10.4979 5.14477 10.4499 5.02577 10.4499 4.88377C10.4499 4.74177 10.4979 4.62311 10.5939 4.52777C10.6899 4.43244 10.8086 4.38477 10.9499 4.38477H14.9419V0.884773C14.9419 0.742773 14.9899 0.623773 15.0859 0.527773C15.1819 0.431773 15.3009 0.384106 15.4429 0.384773C15.5849 0.385439 15.7036 0.433106 15.7989 0.527773C15.8943 0.622439 15.9419 0.741439 15.9419 0.884773V4.38477H19.6689C19.9116 4.38477 20.1149 4.47211 20.2789 4.64677C20.4443 4.82211 20.5103 5.03077 20.4769 5.27277ZM18.7369 20.1708L0.219921 1.66077C0.122588 1.56411 0.0709213 1.44877 0.0649213 1.31477C0.0589213 1.18077 0.110588 1.05844 0.219921 0.947773C0.329255 0.837106 0.448255 0.782106 0.576921 0.782773C0.705588 0.783439 0.824588 0.838439 0.933921 0.947773L19.4499 19.4638C19.5473 19.5611 19.5993 19.6758 19.6059 19.8078C19.6126 19.9398 19.5606 20.0608 19.4499 20.1708C19.3393 20.2808 19.2203 20.3358 19.0929 20.3358C18.9656 20.3358 18.8469 20.2808 18.7369 20.1708ZM1.94092 16.6918C1.79959 16.6918 1.68092 16.6438 1.58492 16.5478C1.48892 16.4524 1.44092 16.3338 1.44092 16.1918C1.44092 16.0498 1.48892 15.9311 1.58492 15.8358C1.68092 15.7404 1.79959 15.6924 1.94092 15.6918H14.1719C14.3139 15.6918 14.4326 15.7398 14.5279 15.8358C14.6233 15.9318 14.6713 16.0508 14.6719 16.1928C14.6726 16.3348 14.6246 16.4534 14.5279 16.5488C14.4313 16.6441 14.3126 16.6918 14.1719 16.6918H1.94092ZM1.94092 19.9998C1.79959 19.9998 1.68092 19.9518 1.58492 19.8558C1.48892 19.7598 1.44092 19.6408 1.44092 19.4988C1.44092 19.3568 1.48892 19.2381 1.58492 19.1428C1.68092 19.0474 1.79959 18.9998 1.94092 18.9998H14.1719C14.3139 18.9998 14.4326 19.0478 14.5279 19.1438C14.6233 19.2398 14.6713 19.3588 14.6719 19.5008C14.6726 19.6428 14.6246 19.7614 14.5279 19.8568C14.4313 19.9521 14.3126 19.9998 14.1719 19.9998H1.94092ZM9.20292 9.21677V10.2168C9.01692 10.1914 8.82925 10.1748 8.63992 10.1668C8.44992 10.1581 8.25559 10.1538 8.05692 10.1538C6.63692 10.1538 5.47025 10.3684 4.55692 10.7978C3.64359 11.2271 3.03525 11.7561 2.73192 12.3848H12.3699L13.3699 13.3848H2.45592C2.19992 13.3848 1.98792 13.2831 1.81992 13.0798C1.65125 12.8764 1.60025 12.6484 1.66692 12.3958C1.84692 11.9304 2.12692 11.4994 2.50692 11.1028C2.88825 10.7061 3.35459 10.3631 3.90592 10.0738C4.45725 9.78444 5.08392 9.55877 5.78592 9.39677C6.48792 9.23477 7.24525 9.15377 8.05792 9.15377C8.25659 9.15377 8.45092 9.15777 8.64092 9.16577C8.83025 9.17444 9.01792 9.19144 9.20392 9.21677" fill="white"/>
</svg>
