<svg width="15" height="20" viewBox="0 0 15 20" fill="none" xmlns="http://www.w3.org/2000/svg">
<path d="M13.7919 19.4328V18.8404C13.7726 18.7862 13.7623 18.7293 13.7612 18.6718C13.7789 18.4328 13.7239 18.1942 13.6033 17.9871C13.4828 17.7801 13.3024 17.6143 13.0859 17.5118C13.0032 17.4654 12.9232 17.4104 12.8406 17.3641C12.0358 16.9426 11.1971 16.5896 10.3332 16.3088C9.92522 16.1644 9.51389 16.0264 9.10856 15.8761C8.9932 15.8416 8.89247 15.7699 8.82201 15.6723C8.75155 15.5746 8.7153 15.4565 8.71889 15.3361C8.71556 14.9861 8.70656 14.6361 8.72822 14.2864C8.73821 14.1383 8.79153 13.9964 8.88156 13.8784C9.1995 13.4693 9.40671 12.9852 9.48322 12.4728C9.51105 12.2372 9.57514 12.0074 9.67322 11.7914C9.8492 11.4609 9.9715 11.1044 10.0356 10.7354C10.0584 10.5665 10.0595 10.3953 10.0389 10.2261C10.0266 10.0174 9.98356 9.80876 9.98356 9.59709C9.98509 9.4189 10.0025 9.2412 10.0356 9.06609C10.1005 8.65301 10.0623 8.23025 9.92412 7.83556C9.78598 7.44087 9.55229 7.08651 9.24389 6.80409C8.80293 6.37169 8.23303 6.09482 7.62056 6.01543C7.44874 5.98808 7.27562 5.96972 7.10189 5.96043V5.95709C7.08958 5.95685 7.07728 5.95797 7.06522 5.96043C7.05408 5.95786 7.04265 5.95674 7.03122 5.95709V5.96043C6.85649 5.96962 6.68236 5.98798 6.50956 6.01543C5.8973 6.09552 5.32761 6.37229 4.88622 6.80409C4.57812 7.08663 4.34483 7.44111 4.2072 7.83584C4.06958 8.23057 4.03191 8.65325 4.09756 9.06609C4.1272 9.24167 4.14458 9.4191 4.14956 9.59709C4.14656 9.80876 4.10656 10.0174 4.09456 10.2261C4.07453 10.3953 4.07453 10.5662 4.09456 10.7354C4.15945 11.1046 4.28265 11.461 4.45956 11.7914C4.55574 12.0079 4.61889 12.2376 4.64689 12.4728C4.72448 12.9853 4.93272 13.4693 5.25156 13.8781C5.34164 13.9962 5.39497 14.1382 5.40489 14.2864C5.42622 14.6364 5.41389 14.9861 5.41089 15.3361C5.41526 15.4567 5.37928 15.5753 5.30863 15.6731C5.23799 15.7709 5.13673 15.8423 5.02089 15.8761C4.61589 16.0261 4.20489 16.1644 3.79656 16.3088C2.93335 16.589 2.09555 16.9422 1.29222 17.3644C1.20956 17.4104 1.12956 17.4658 1.04689 17.5118C0.830383 17.6143 0.649995 17.7801 0.529455 17.9871C0.408915 18.1942 0.353869 18.4328 0.371557 18.6718C0.367665 18.7292 0.356349 18.7859 0.337891 18.8404V19.4328" stroke="#726BEA" stroke-width="0.50025" stroke-linecap="round" stroke-linejoin="round"/>
<path d="M5.33696 6.47633C5.8063 6.24267 7.37596 5.59067 8.81463 6.474C8.85124 6.49727 8.88136 6.52944 8.90217 6.5675C8.92298 6.60557 8.9338 6.64828 8.93363 6.69167V7.71967C8.93334 7.7589 8.92404 7.79753 8.90644 7.8326C8.88884 7.86766 8.86342 7.89821 8.83214 7.92189C8.80086 7.94557 8.76456 7.96174 8.72603 7.96916C8.68751 7.97657 8.6478 7.97504 8.60996 7.96467C7.59911 7.67885 6.52939 7.67459 5.5163 7.95233C5.47863 7.96275 5.43906 7.96428 5.4007 7.95682C5.36234 7.94936 5.32624 7.9331 5.29523 7.90932C5.26421 7.88555 5.23914 7.8549 5.22197 7.81979C5.20481 7.78469 5.19602 7.74608 5.1963 7.707V6.704C5.19612 6.65674 5.20917 6.61037 5.23397 6.57014C5.25877 6.52991 5.29466 6.49741 5.33696 6.47633Z" stroke="#726BEA" stroke-width="0.5" stroke-miterlimit="10"/>
<path d="M9.46464 4.64914L10.1253 3.30348L10.801 4.02081L11.631 2.33014M3.19164 1.95214L3.96898 3.23381L3.00098 3.41681L3.97798 5.02714M7.24598 4.09314L7.18298 2.59548L6.27564 2.97981L6.19631 1.09814" stroke="#726BEA" stroke-width="0.5" stroke-linecap="round" stroke-linejoin="round"/>
</svg>
