<svg width="16" height="20" viewBox="0 0 16 20" fill="none" xmlns="http://www.w3.org/2000/svg">
<path d="M4.05841 8.34152C3.35508 7.4768 2.6948 7.29111 2.07758 7.78444C1.15133 8.52444 0.885495 11.1044 1.6305 13.3794C2.3755 15.6544 3.82508 18.7515 6.75091 18.7515C9.67675 18.7515 10.3684 15.6344 11.5617 13.7503C12.7555 11.8661 13.3867 10.0482 12.2172 7.78444" stroke="#726BEA" stroke-linecap="round" stroke-linejoin="round"/>
<path d="M2.58369 7.51582C2.03286 6.67423 1.4773 5.83574 0.917025 5.00041C0.314525 4.10666 1.85494 2.95124 2.58369 3.73707C3.06953 4.26124 3.71494 5.03304 4.51994 6.05249" stroke="#726BEA" stroke-linecap="round"/>
<path d="M4.2603 10.6834C4.05836 8.15672 4.22252 6.51158 4.7528 5.74797C5.54863 4.60214 7.02655 4.16797 8.41863 4.16797C9.24725 4.16797 10.0039 4.52089 10.6886 5.22672" stroke="#726BEA" stroke-linecap="round" stroke-linejoin="round"/>
<path d="M15.0833 5.2556C15.3274 6.10393 14.9291 6.87935 13.7016 7.05476C12.4741 7.23018 11.5545 7.84726 10.8912 8.36643C10.2279 8.8856 9.04118 10.4606 8.8066 11.251C8.57202 12.0414 7.23327 11.3148 6.87368 10.9989C6.5141 10.6835 6.16035 9.99226 6.87368 9.26935C7.58702 8.54643 7.43243 8.40226 7.43243 7.66935C7.43243 6.93601 11.3333 4.51101 13.5303 4.28935C14.0187 4.26101 14.8395 4.40685 15.0833 5.2556Z" stroke="#726BEA"/>
<path d="M7.587 1.66688V3.85979M6.46159 4.46604C5.20409 2.88549 4.1902 2.00354 3.41992 1.82021M5.08534 2.92896L5.49784 1.23438M12.8391 4.46604C12.7049 4.92604 12.7049 5.35743 12.8391 5.76021C12.9735 6.16299 13.2612 6.59451 13.702 7.05479" stroke="#726BEA" stroke-linecap="round"/>
</svg>
