<svg width="24" height="21" viewBox="0 0 24 21" fill="none" xmlns="http://www.w3.org/2000/svg">
<g filter="url(#filter0_d_327_7595)">
<path d="M9.29972 2.68099C10.6377 0.856988 13.3617 0.856988 14.6997 2.68099L15.4677 3.72699C17.1266 5.98921 18.1656 8.64561 18.4817 11.433C18.6259 12.7093 18.313 13.9953 17.5986 15.0627C16.8842 16.1301 15.8146 16.9097 14.5797 17.263L13.8117 17.483C12.6274 17.8211 11.3721 17.8211 10.1877 17.483L9.41972 17.263C8.18488 16.9097 7.11526 16.1301 6.40086 15.0627C5.68647 13.9953 5.37356 12.7093 5.51772 11.433C5.83418 8.64551 6.87351 5.98911 8.53272 3.72699L9.29972 2.68099Z" stroke="white" stroke-width="2" shape-rendering="crispEdges"/>
</g>
<defs>
<filter id="filter0_d_327_7595" x="0.483398" y="0.312988" width="23.0322" height="26.4238" filterUnits="userSpaceOnUse" color-interpolation-filters="sRGB">
<feFlood flood-opacity="0" result="BackgroundImageFix"/>
<feColorMatrix in="SourceAlpha" type="matrix" values="0 0 0 0 0 0 0 0 0 0 0 0 0 0 0 0 0 0 127 0" result="hardAlpha"/>
<feOffset dy="4"/>
<feGaussianBlur stdDeviation="2"/>
<feComposite in2="hardAlpha" operator="out"/>
<feColorMatrix type="matrix" values="0 0 0 0 0 0 0 0 0 0 0 0 0 0 0 0 0 0 0.25 0"/>
<feBlend mode="normal" in2="BackgroundImageFix" result="effect1_dropShadow_327_7595"/>
<feBlend mode="normal" in="SourceGraphic" in2="effect1_dropShadow_327_7595" result="shape"/>
</filter>
</defs>
</svg>
