<svg width="20" height="14" viewBox="0 0 20 14" fill="none" xmlns="http://www.w3.org/2000/svg">
<path fill-rule="evenodd" clip-rule="evenodd" d="M8.325 5.5H6.175C3.317 5.5 1 7.817 1 10.675C1 11.2916 1.24495 11.883 1.68098 12.319C2.117 12.755 2.70837 13 3.325 13H11.175C11.7916 13 12.383 12.755 12.819 12.319C13.255 11.883 13.5 11.2916 13.5 10.675C13.5 7.817 11.183 5.5 8.325 5.5ZM6.175 4.5C2.765 4.5 0 7.265 0 10.675C0 11.5568 0.350312 12.4026 0.97387 13.0261C1.59743 13.6497 2.44316 14 3.325 14H11.175C12.0568 14 12.9026 13.6497 13.5261 13.0261C14.1497 12.4026 14.5 11.5568 14.5 10.675C14.5 7.265 11.735 4.5 8.325 4.5H6.175Z" fill="#726BEA"/>
<path fill-rule="evenodd" clip-rule="evenodd" d="M4.58 6.536C4.1985 7.1825 4 7.97 4 8.5C4 8.63261 3.94732 8.75979 3.85355 8.85355C3.75979 8.94732 3.63261 9 3.5 9C3.36739 9 3.24021 8.94732 3.14645 8.85355C3.05268 8.75979 3 8.63261 3 8.5C3 7.78 3.252 6.8175 3.72 6.027C4.1815 5.245 4.94 4.5 6 4.5C6.13261 4.5 6.25979 4.55268 6.35355 4.64645C6.44732 4.74021 6.5 4.86739 6.5 5C6.5 5.13261 6.44732 5.25979 6.35355 5.35355C6.25979 5.44732 6.13261 5.5 6 5.5C5.46 5.5 4.968 5.88 4.58 6.536ZM7.08 6.536C6.6985 7.1825 6.5 7.97 6.5 8.5C6.5 8.63261 6.44732 8.75979 6.35355 8.85355C6.25979 8.94732 6.13261 9 6 9C5.86739 9 5.74021 8.94732 5.64645 8.85355C5.55268 8.75979 5.5 8.63261 5.5 8.5C5.5 7.78 5.752 6.8175 6.22 6.027C6.6815 5.245 7.44 4.5 8.5 4.5C8.63261 4.5 8.75979 4.55268 8.85355 4.64645C8.94732 4.74021 9 4.86739 9 5C9 5.13261 8.94732 5.25979 8.85355 5.35355C8.75979 5.44732 8.63261 5.5 8.5 5.5C7.96 5.5 7.468 5.88 7.08 6.536ZM10.545 4.9945C10.6127 5.10843 10.6324 5.24457 10.5998 5.37301C10.5671 5.50145 10.4849 5.61169 10.371 5.6795C9.9725 5.917 9.624 6.3775 9.373 6.9385C9.123 7.495 9 8.083 9 8.5C9 8.63261 8.94732 8.75979 8.85355 8.85355C8.75979 8.94732 8.63261 9 8.5 9C8.36739 9 8.24021 8.94732 8.14645 8.85355C8.05268 8.75979 8 8.63261 8 8.5C8 7.92 8.1625 7.1935 8.46 6.5295C8.756 5.8695 9.215 5.2035 9.86 4.8205C9.97393 4.7528 10.1101 4.73311 10.2385 4.76573C10.367 4.79836 10.4772 4.88064 10.545 4.9945ZM15.5 0C15.6326 0 15.7598 0.0526785 15.8536 0.146447C15.9473 0.240215 16 0.367392 16 0.5V7.5C16 7.63261 15.9473 7.75979 15.8536 7.85355C15.7598 7.94732 15.6326 8 15.5 8C15.3674 8 15.2402 7.94732 15.1464 7.85355C15.0527 7.75979 15 7.63261 15 7.5V0.5C15 0.367392 15.0527 0.240215 15.1464 0.146447C15.2402 0.0526785 15.3674 0 15.5 0ZM19.5 0C19.6326 0 19.7598 0.0526785 19.8536 0.146447C19.9473 0.240215 20 0.367392 20 0.5V7.5C20 7.63261 19.9473 7.75979 19.8536 7.85355C19.7598 7.94732 19.6326 8 19.5 8C19.3674 8 19.2402 7.94732 19.1464 7.85355C19.0527 7.75979 19 7.63261 19 7.5V0.5C19 0.367392 19.0527 0.240215 19.1464 0.146447C19.2402 0.0526785 19.3674 0 19.5 0ZM17.5 0C17.6326 0 17.7598 0.0526785 17.8536 0.146447C17.9473 0.240215 18 0.367392 18 0.5V7.5C18 7.63261 17.9473 7.75979 17.8536 7.85355C17.7598 7.94732 17.6326 8 17.5 8C17.3674 8 17.2402 7.94732 17.1464 7.85355C17.0527 7.75979 17 7.63261 17 7.5V0.5C17 0.367392 17.0527 0.240215 17.1464 0.146447C17.2402 0.0526785 17.3674 0 17.5 0Z" fill="#726BEA"/>
<path fill-rule="evenodd" clip-rule="evenodd" d="M17.5 6C17.6326 6 17.7598 6.05268 17.8536 6.14645C17.9473 6.24021 18 6.36739 18 6.5V13.5C18 13.6326 17.9473 13.7598 17.8536 13.8536C17.7598 13.9473 17.6326 14 17.5 14C17.3674 14 17.2402 13.9473 17.1464 13.8536C17.0527 13.7598 17 13.6326 17 13.5V6.5C17 6.36739 17.0527 6.24021 17.1464 6.14645C17.2402 6.05268 17.3674 6 17.5 6ZM15 0.5V3.264C15 3.63544 15.1034 3.99955 15.2986 4.31553C15.4939 4.63151 15.7733 4.88687 16.1055 5.053L18 6V3.236C18 2.86456 17.8966 2.50045 17.7014 2.18447C17.5061 1.86849 17.2267 1.61313 16.8945 1.447L15 0.5ZM16 2.118V3.264C16 3.44975 16.0517 3.63182 16.1494 3.78981C16.2471 3.94781 16.3868 4.07547 16.553 4.1585L17 4.382V3.236C17 3.05025 16.9483 2.86818 16.8506 2.71019C16.7529 2.55219 16.6132 2.42453 16.447 2.3415L16 2.118Z" fill="#726BEA"/>
<path fill-rule="evenodd" clip-rule="evenodd" d="M15 3.5V6.264C15 6.63544 15.1034 6.99955 15.2986 7.31553C15.4939 7.63151 15.7733 7.88687 16.1055 8.053L18 9V6.236C18 5.86456 17.8966 5.50045 17.7014 5.18447C17.5061 4.86849 17.2267 4.61313 16.8945 4.447L15 3.5ZM16 5.118V6.264C16 6.44975 16.0517 6.63182 16.1494 6.78981C16.2471 6.94781 16.3868 7.07547 16.553 7.1585L17 7.382V6.236C17 6.05025 16.9483 5.86818 16.8506 5.71019C16.7529 5.55219 16.6132 5.42453 16.447 5.3415L16 5.118Z" fill="#726BEA"/>
<path fill-rule="evenodd" clip-rule="evenodd" d="M15 6.5V9.264C15 9.63544 15.1034 9.99955 15.2986 10.3155C15.4939 10.6315 15.7733 10.8869 16.1055 11.053L18 12V9.236C18 8.86456 17.8966 8.50045 17.7014 8.18447C17.5061 7.86849 17.2267 7.61313 16.8945 7.447L15 6.5ZM16 8.118V9.264C16 9.44975 16.0517 9.63182 16.1494 9.78981C16.2471 9.94781 16.3868 10.0755 16.553 10.1585L17 10.382V9.236C17 9.05025 16.9483 8.86818 16.8506 8.71019C16.7529 8.55219 16.6132 8.42453 16.447 8.3415L16 8.118ZM20 0.5V3.264C20 3.63544 19.8966 3.99955 19.7014 4.31553C19.5061 4.63151 19.2267 4.88687 18.8945 5.053L17 6V3.236C17 2.86456 17.1034 2.50045 17.2986 2.18447C17.4939 1.86849 17.7733 1.61313 18.1055 1.447L20 0.5ZM19 2.118V3.264C19 3.44975 18.9483 3.63182 18.8506 3.78981C18.7529 3.94781 18.6132 4.07547 18.447 4.1585L18 4.382V3.236C18 3.05025 18.0517 2.86818 18.1494 2.71019C18.2471 2.55219 18.3868 2.42453 18.553 2.3415L19 2.118Z" fill="#726BEA"/>
<path fill-rule="evenodd" clip-rule="evenodd" d="M20 3.5V6.264C20 6.63544 19.8966 6.99955 19.7014 7.31553C19.5061 7.63151 19.2267 7.88687 18.8945 8.053L17 9V6.236C17 5.86456 17.1034 5.50045 17.2986 5.18447C17.4939 4.86849 17.7733 4.61313 18.1055 4.447L20 3.5ZM19 5.118V6.264C19 6.44975 18.9483 6.63182 18.8506 6.78981C18.7529 6.94781 18.6132 7.07547 18.447 7.1585L18 7.382V6.236C18 6.05025 18.0517 5.86818 18.1494 5.71019C18.2471 5.55219 18.3868 5.42453 18.553 5.3415L19 5.118Z" fill="#726BEA"/>
<path fill-rule="evenodd" clip-rule="evenodd" d="M20 6.5V9.264C20 9.63544 19.8966 9.99955 19.7014 10.3155C19.5061 10.6315 19.2267 10.8869 18.8945 11.053L17 12V9.236C17 8.86456 17.1034 8.50045 17.2986 8.18447C17.4939 7.86849 17.7733 7.61313 18.1055 7.447L20 6.5ZM19 8.118V9.264C19 9.44975 18.9483 9.63182 18.8506 9.78981C18.7529 9.94781 18.6132 10.0755 18.447 10.1585L18 10.382V9.236C18 9.05025 18.0517 8.86818 18.1494 8.71019C18.2471 8.55219 18.3868 8.42453 18.553 8.3415L19 8.118Z" fill="#726BEA"/>
</svg>
