<svg width="16" height="19" viewBox="0 0 16 19" fill="none" xmlns="http://www.w3.org/2000/svg">
<path d="M5.29972 2.68099C6.63772 0.856988 9.36172 0.856988 10.6997 2.68099L11.4677 3.72699C13.1266 5.98921 14.1656 8.64561 14.4817 11.433C14.6259 12.7093 14.313 13.9953 13.5986 15.0627C12.8842 16.1301 11.8146 16.9097 10.5797 17.263L9.81172 17.483C8.62739 17.8211 7.37206 17.8211 6.18772 17.483L5.41972 17.263C4.18488 16.9097 3.11526 16.1301 2.40086 15.0627C1.68647 13.9953 1.37356 12.7093 1.51772 11.433C1.83418 8.64551 2.87351 5.98911 4.53272 3.72699L5.29972 2.68099Z" stroke="#726BEA" stroke-width="2"/>
</svg>
