<svg width="17" height="17" viewBox="0 0 17 17" fill="none" xmlns="http://www.w3.org/2000/svg">
<path d="M14.5212 1.4165H2.47949C2.1977 1.4165 1.92745 1.52845 1.72819 1.7277C1.52893 1.92696 1.41699 2.19721 1.41699 2.479V14.5207C1.41699 14.8025 1.52893 15.0727 1.72819 15.272C1.92745 15.4712 2.1977 15.5832 2.47949 15.5832H14.5212C14.803 15.5832 15.0732 15.4712 15.2725 15.272C15.4717 15.0727 15.5837 14.8025 15.5837 14.5207V2.479C15.5837 2.19721 15.4717 1.92696 15.2725 1.7277C15.0732 1.52845 14.803 1.4165 14.5212 1.4165Z" stroke="white" stroke-linejoin="round"/>
<path d="M4.25 6.74805C5.42749 5.33138 6.84415 4.62305 8.5 4.62305C10.1556 4.62305 11.5723 5.33138 12.75 6.74805" stroke="white" stroke-linecap="round"/>
<path d="M8.5 10.979C8.78179 10.979 9.05204 10.8671 9.2513 10.6678C9.45056 10.4685 9.5625 10.1983 9.5625 9.9165C9.5625 9.63471 9.45056 9.36446 9.2513 9.1652C9.05204 8.96595 8.78179 8.854 8.5 8.854C8.21821 8.854 7.94796 8.96595 7.7487 9.1652C7.54944 9.36446 7.4375 9.63471 7.4375 9.9165C7.4375 10.1983 7.54944 10.4685 7.7487 10.6678C7.94796 10.8671 8.21821 10.979 8.5 10.979Z" fill="white"/>
<path d="M6.72949 7.4375L8.50316 9.91667" stroke="white" stroke-linecap="round"/>
</svg>
