<svg width="18" height="18" viewBox="0 0 18 18" fill="none" xmlns="http://www.w3.org/2000/svg">
<path fill-rule="evenodd" clip-rule="evenodd" d="M14.9251 5.12493C15.2961 5.53443 15.1826 6.16293 14.7301 6.47993L12.2941 8.18893C11.8421 8.50593 11.2241 8.37793 10.7776 8.05393C10.275 7.68805 9.67169 7.48619 9.05009 7.47593C8.42848 7.46573 7.81883 7.6473 7.30409 7.99593C6.84659 8.30543 6.22509 8.41293 5.78409 8.08093L3.40559 6.29193C2.96459 5.95993 2.87159 5.32743 3.25609 4.93093C4.01749 4.1457 4.93183 3.52495 5.9426 3.10703C6.95337 2.6891 8.0391 2.48288 9.13271 2.50111C10.2263 2.51934 11.3046 2.76163 12.3009 3.21301C13.2971 3.66438 14.1903 4.31476 14.9251 5.12493ZM14.0976 5.70343C13.4565 5.02213 12.6854 4.47625 11.8298 4.09802C10.9742 3.71979 10.0515 3.5169 9.1161 3.50133C8.18075 3.48576 7.25177 3.65784 6.38405 4.00738C5.51633 4.35692 4.72747 4.87685 4.06409 5.53643L6.38309 7.28043C6.40445 7.28497 6.4264 7.28598 6.44809 7.28343C6.52659 7.27643 6.63659 7.24043 6.74309 7.16843C7.4497 6.6898 8.29017 6.44816 9.14309 6.47843C9.16209 6.43843 9.18692 6.40076 9.21759 6.36543L10.5906 4.78643C10.6776 4.68631 10.8008 4.62485 10.9331 4.61556C11.0654 4.60628 11.196 4.64994 11.2961 4.73693C11.3962 4.82392 11.4577 4.94712 11.467 5.07943C11.4762 5.21173 11.4326 5.34231 11.3456 5.44243L10.2681 6.68143C10.6609 6.81138 11.0311 7.00147 11.3656 7.24493C11.4696 7.32043 11.5781 7.35993 11.6566 7.36993C11.6946 7.37493 11.7146 7.37143 11.7216 7.36943L14.0976 5.70343ZM11.7261 7.36793L11.7216 7.36943C11.7236 7.36776 11.7254 7.36726 11.7261 7.36793Z" fill="white"/>
<path fill-rule="evenodd" clip-rule="evenodd" d="M15.1078 18C15.6191 18 16.1109 17.8043 16.4823 17.453C16.8537 17.1016 17.0765 16.6214 17.1048 16.111L17.8828 2.111C17.8979 1.83942 17.8575 1.56762 17.7639 1.31221C17.6704 1.0568 17.5257 0.823154 17.3388 0.625561C17.1519 0.427968 16.9266 0.270579 16.6768 0.163019C16.427 0.055459 16.1578 -1.12353e-05 15.8858 1.70694e-09H2.11384C1.84188 5.67552e-05 1.5728 0.0555771 1.32303 0.163167C1.07326 0.270757 0.848055 0.428157 0.661186 0.625743C0.474317 0.823329 0.329708 1.05695 0.2362 1.31233C0.142691 1.5677 0.102247 1.83946 0.117341 2.111L0.89484 16.111C0.923214 16.6214 1.14598 17.1016 1.51738 17.453C1.88878 17.8043 2.38061 18 2.89184 18H15.1078ZM2.89184 17H15.1078C15.3635 17 15.6095 16.9021 15.7952 16.7263C15.9809 16.5505 16.0923 16.3103 16.1063 16.055L16.8843 2.055C16.8918 1.91925 16.8715 1.7834 16.8247 1.65576C16.7779 1.52811 16.7056 1.41135 16.6121 1.31261C16.5187 1.21387 16.4061 1.13522 16.2812 1.08147C16.1563 1.02772 16.0218 0.999998 15.8858 1H2.11384C1.97789 0.999998 1.84336 1.02772 1.71848 1.08147C1.5936 1.13522 1.48099 1.21387 1.38754 1.31261C1.29409 1.41135 1.22175 1.52811 1.17495 1.65576C1.12814 1.7834 1.10786 1.91925 1.11534 2.055L1.89334 16.055C1.9074 16.3103 2.01873 16.5505 2.20445 16.7263C2.39016 16.9021 2.63614 17 2.89184 17Z" fill="white"/>
</svg>
