<svg width="24" height="23" viewBox="0 0 24 23" fill="none" xmlns="http://www.w3.org/2000/svg">
<path d="M8.1511 3.17018C8.23026 2.72737 8.28621 2.31306 8.38332 1.90879C8.44532 1.62865 8.5451 1.35824 8.67993 1.10498C8.72886 1.00311 8.8037 0.915877 8.89695 0.852032C8.9902 0.788187 9.0986 0.749967 9.21127 0.741201C9.32395 0.732435 9.43695 0.753431 9.53895 0.802086C9.64096 0.85074 9.72839 0.925344 9.79248 1.01843C9.93985 1.18558 10.046 1.38496 10.1023 1.60056C10.3025 2.46648 10.4491 3.3439 10.5414 4.22784C10.5645 4.46131 10.5393 4.69704 10.4673 4.92033C10.3954 5.14363 10.2781 5.3497 10.123 5.52569C9.96785 5.70168 9.77811 5.84382 9.56561 5.94324C9.35311 6.04267 9.1224 6.09724 8.88787 6.10356C8.55854 6.14209 8.22498 6.14526 7.87454 6.16531C7.86029 6.30887 7.84604 6.46404 7.82915 6.61868C7.81069 6.87965 7.72699 7.13182 7.58572 7.35203C7.44444 7.57224 7.25013 7.75344 7.0206 7.87901C6.83904 7.9814 6.81529 8.07745 6.85171 8.27379C6.98312 8.7907 6.97931 9.33274 6.84067 9.84776C6.70202 10.3628 6.4332 10.8335 6.06004 11.2146C6.33198 11.7242 6.48939 12.287 6.5213 12.8638C6.5532 13.4405 6.45883 14.0173 6.24476 14.5538C6.16123 14.7173 6.12985 14.9024 6.15486 15.0843C6.17987 15.2662 6.26007 15.436 6.38462 15.5708C6.91768 16.2606 6.99685 16.6633 7.05015 17.9237C7.3019 18.0118 7.5526 18.1073 7.80962 18.1833C7.88776 18.1986 7.96878 18.1839 8.03657 18.1422C8.53322 17.7909 9.11834 17.5858 9.7256 17.5501C10.3329 17.5144 10.938 17.6495 11.4724 17.94C11.5068 17.9543 11.544 17.9604 11.5812 17.9576C11.6183 17.9549 11.6543 17.9434 11.6862 17.9242C12.2471 17.492 12.9368 17.2602 13.645 17.2661C14.3532 17.2719 15.039 17.515 15.5928 17.9564L17.0864 17.2386C16.9376 16.7536 16.9013 16.2411 16.9801 15.74C17.059 15.2389 17.2509 14.7623 17.5413 14.3464C17.4305 14.1564 17.3197 13.9843 17.2283 13.8028C17.0661 13.4824 16.9803 13.1287 16.9778 12.7695C16.9754 12.4103 17.0562 12.0555 17.2141 11.7328C17.2368 11.6849 17.2488 11.6325 17.2491 11.5795C17.2495 11.5264 17.2383 11.4739 17.2162 11.4257C16.8776 11.0516 16.6385 10.5984 16.5209 10.1078C16.4033 9.61714 16.411 9.10479 16.5433 8.6179C16.5675 8.52653 16.5705 8.43086 16.5522 8.33814C16.5339 8.24542 16.4948 8.15808 16.4377 8.08273C15.9726 7.44394 15.7725 6.65005 15.8793 5.86712C15.9381 5.50669 16.0925 5.16862 16.3263 4.88811C16.5601 4.60759 16.8649 4.3949 17.2088 4.27218C17.9385 3.95012 18.7546 3.8803 19.5284 4.07373C20.0807 4.22543 20.5586 4.57374 20.872 5.05313C21.1855 5.53251 21.313 6.10993 21.2305 6.67673C21.1949 6.84506 21.1998 7.01943 21.2448 7.1855C21.2898 7.35157 21.3735 7.5046 21.4891 7.63201C21.7888 7.97261 21.9948 8.38524 22.0869 8.82944C22.1791 9.27365 22.1542 9.73417 22.0148 10.1659C21.9949 10.2766 22.0173 10.3907 22.0776 10.4857C22.3763 10.9206 22.5527 11.4278 22.5884 11.9542C22.6241 12.4806 22.5176 13.007 22.2802 13.4782C22.2032 13.6365 22.2686 13.7157 22.3383 13.8202C22.6389 14.2661 22.7942 14.794 22.7831 15.3316C22.7719 15.8692 22.5948 16.3902 22.276 16.8233C22.1666 16.9374 22.0931 17.0812 22.0647 17.2368C22.0363 17.3923 22.0541 17.5528 22.1161 17.6983C22.5689 19.25 21.8116 20.656 20.348 21.0096C20.0904 21.0742 19.8478 21.188 19.6334 21.3447C19.0889 21.7726 18.434 22.0369 17.745 22.1067C17.056 22.1765 16.3614 22.0489 15.7421 21.739C15.6181 21.6959 15.4822 21.7021 15.3627 21.7564C14.8029 22.0458 14.1816 22.1962 13.5515 22.1949C12.9213 22.1936 12.3007 22.0407 11.7421 21.749C11.689 21.7325 11.6331 21.727 11.5777 21.7327C11.5224 21.7384 11.4688 21.7553 11.4202 21.7823C10.9447 22.0698 10.4087 22.2422 9.85475 22.2859C9.30085 22.3296 8.7444 22.2434 8.22974 22.034C8.01355 21.9239 7.77779 21.8574 7.53591 21.8384C7.29403 21.8193 7.05078 21.8482 6.82004 21.9232C6.38132 22.041 5.91899 22.0387 5.48147 21.9165C5.04394 21.7943 4.64733 21.5567 4.33315 21.2286C4.2259 21.1297 4.10017 21.0529 3.96318 21.0027C2.30385 20.4644 1.72699 19.4933 2.10804 17.787C2.15888 17.6092 2.16823 17.4221 2.13538 17.2401C2.10253 17.0581 2.02836 16.886 1.91857 16.7372C1.55708 16.2268 1.32719 15.635 1.2493 15.0143C1.17141 14.3937 1.24793 13.7634 1.47207 13.1795C1.50668 13.0953 1.51639 13.003 1.50004 12.9135C1.37642 12.4247 1.36834 11.9139 1.47644 11.4215C1.58453 10.9291 1.80584 10.4687 2.12282 10.0767C2.19885 9.95812 2.22784 9.81544 2.2041 9.67662C2.06606 9.13094 2.10084 8.55587 2.30362 8.03081C2.50641 7.50574 2.8672 7.05658 3.33618 6.74534C3.41129 6.69503 3.4731 6.62727 3.5163 6.54786C3.5595 6.46844 3.58281 6.37974 3.58424 6.28934C3.61972 5.67343 3.83434 5.08129 4.20174 4.58568C4.51508 4.1885 4.9488 3.90367 5.43779 3.77395C5.70275 3.6991 5.96145 3.60364 6.21151 3.48843C6.80476 3.16991 7.48723 3.05759 8.1511 3.17018Z" stroke="white" stroke-width="0.5" stroke-linecap="round" stroke-linejoin="round"/>
</svg>
