<svg width="24" height="24" viewBox="0 0 24 24" fill="none" xmlns="http://www.w3.org/2000/svg">
<path d="M12.9092 20.6855L12.5782 15.5355C12.5782 15.209 12.7022 15.0545 12.8947 14.862L14.3532 13.621C14.8262 13.219 14.7602 12.8225 14.7497 12.6495L14.4997 8.5C14.4832 8.2245 14.2762 8 13.9997 8C13.7232 8 13.4997 8.224 13.4997 8.5V12C13.4997 12.1326 13.4471 12.2598 13.3533 12.3536C13.2595 12.4473 13.1323 12.5 12.9997 12.5C12.8671 12.5 12.7399 12.4473 12.6462 12.3536C12.5524 12.2598 12.4997 12.1326 12.4997 12V8.5C12.4997 8.36739 12.4471 8.24021 12.3533 8.14645C12.2595 8.05268 12.1323 8 11.9997 8C11.8671 8 11.7399 8.05268 11.6462 8.14645C11.5524 8.24021 11.4997 8.36739 11.4997 8.5V12C11.4997 12.1326 11.4471 12.2598 11.3533 12.3536C11.2595 12.4473 11.1323 12.5 10.9997 12.5C10.8671 12.5 10.7399 12.4473 10.6462 12.3536C10.5524 12.2598 10.4997 12.1326 10.4997 12V8.5C10.4997 8.224 10.2762 8 9.99973 8C9.72323 8 9.51673 8.2245 9.49973 8.5L9.24973 12.65C9.23923 12.8285 9.19173 13.2325 9.64623 13.6215L11.0967 14.8625C11.2552 15.0205 11.3717 15.2965 11.3717 15.536L11.0837 20.685" stroke="white" stroke-width="0.5" stroke-linecap="round" stroke-linejoin="round"/>
<path d="M12 22.75C17.9371 22.75 22.75 17.9371 22.75 12C22.75 6.06294 17.9371 1.25 12 1.25C6.06294 1.25 1.25 6.06294 1.25 12C1.25 17.9371 6.06294 22.75 12 22.75Z" stroke="white" stroke-width="0.5" stroke-linecap="round" stroke-linejoin="round"/>
<path d="M12 20.75C16.8325 20.75 20.75 16.8325 20.75 12C20.75 7.16751 16.8325 3.25 12 3.25C7.16751 3.25 3.25 7.16751 3.25 12C3.25 16.8325 7.16751 20.75 12 20.75Z" stroke="white" stroke-width="0.5" stroke-linecap="round" stroke-linejoin="round"/>
<path d="M5.81288 18.1875C5.62427 18.0053 5.37167 17.9045 5.10947 17.9068C4.84728 17.9091 4.59647 18.0143 4.41106 18.1997C4.22565 18.3851 4.12048 18.6359 4.1182 18.8981C4.11592 19.1603 4.21672 19.4129 4.39888 19.6015M12.0004 1.25C11.7352 1.25 11.4808 1.35536 11.2933 1.54289C11.1057 1.73043 11.0004 1.98478 11.0004 2.25C11.0004 2.51522 11.1057 2.76957 11.2933 2.95711C11.4808 3.14464 11.7352 3.25 12.0004 3.25" stroke="white" stroke-width="0.5" stroke-linecap="round" stroke-linejoin="round"/>
</svg>
