<svg id="Layer_1" data-name="Layer 1" xmlns="http://www.w3.org/2000/svg" viewBox="0 0 17.4 17.41"><defs><style>.cls-1{fill:#fff;}</style></defs><path class="cls-1" d="M15.85,13.43h0c-.17,0-.25,0-.28-.21A1.35,1.35,0,0,0,14.3,12c-.11,0-.13,0-.12-.14a1,1,0,0,0,0-.24c0-.17,0-.21.2-.19a2,2,0,0,1,1.76,1.76C16.16,13.43,16.16,13.43,15.85,13.43Z" transform="translate(-0.3 -0.51)"/><path class="cls-1" d="M14.2,10.63A2.81,2.81,0,1,0,17,13.45,2.8,2.8,0,0,0,14.2,10.63Zm0,5a2.25,2.25,0,1,1,2.26-2.25A2.25,2.25,0,0,1,14.17,15.68Z" transform="translate(-0.3 -0.51)"/><path class="cls-1" d="M14.18,2.12c0-.19.06-.2.21-.19a2.29,2.29,0,0,1,2,2c0,.22,0,.22-.28.22s-.25,0-.3-.25A1.65,1.65,0,0,0,14.3,2.5c-.1,0-.13,0-.12-.14A1,1,0,0,0,14.18,2.12Z" transform="translate(-0.3 -0.51)"/><path class="cls-1" d="M8.51,1.93A2.27,2.27,0,0,0,7,1.37a2.3,2.3,0,0,0-1.38.47c-.23.17-.23.17,0,.38a.47.47,0,0,1,.1.1c.07.1.13.08.22,0a1.68,1.68,0,0,1,2-.14c.1.07.18.23.3.19s.18-.17.28-.25S8.6,2,8.51,1.93Zm0,0A2.27,2.27,0,0,0,7,1.37a2.3,2.3,0,0,0-1.38.47c-.23.17-.23.17,0,.38a.47.47,0,0,1,.1.1c.07.1.13.08.22,0a1.68,1.68,0,0,1,2-.14c.1.07.18.23.3.19s.18-.17.28-.25S8.6,2,8.51,1.93Zm0,0A2.27,2.27,0,0,0,7,1.37a2.3,2.3,0,0,0-1.38.47c-.23.17-.23.17,0,.38a.47.47,0,0,1,.1.1c.07.1.13.08.22,0a1.68,1.68,0,0,1,2-.14c.1.07.18.23.3.19s.18-.17.28-.25S8.6,2,8.51,1.93Zm0,0A2.27,2.27,0,0,0,7,1.37a2.3,2.3,0,0,0-1.38.47c-.23.17-.23.17,0,.38a.47.47,0,0,1,.1.1c.07.1.13.08.22,0a1.68,1.68,0,0,1,2-.14c.1.07.18.23.3.19s.18-.17.28-.25S8.6,2,8.51,1.93Zm0,0A2.27,2.27,0,0,0,7,1.37a2.3,2.3,0,0,0-1.38.47c-.23.17-.23.17,0,.38a.47.47,0,0,1,.1.1c.07.1.13.08.22,0a1.68,1.68,0,0,1,2-.14c.1.07.18.23.3.19s.18-.17.28-.25S8.6,2,8.51,1.93Zm0,0A2.27,2.27,0,0,0,7,1.37a2.3,2.3,0,0,0-1.38.47c-.23.17-.23.17,0,.38a.47.47,0,0,1,.1.1c.07.1.13.08.22,0a1.68,1.68,0,0,1,2-.14c.1.07.18.23.3.19s.18-.17.28-.25S8.6,2,8.51,1.93Zm0,0A2.27,2.27,0,0,0,7,1.37a2.3,2.3,0,0,0-1.38.47c-.23.17-.23.17,0,.38a.47.47,0,0,1,.1.1c.07.1.13.08.22,0a1.68,1.68,0,0,1,2-.14c.1.07.18.23.3.19s.18-.17.28-.25S8.6,2,8.51,1.93Zm0,0A2.27,2.27,0,0,0,7,1.37a2.3,2.3,0,0,0-1.38.47c-.23.17-.23.17,0,.38a.47.47,0,0,1,.1.1c.07.1.13.08.22,0a1.68,1.68,0,0,1,2-.14c.1.07.18.23.3.19s.18-.17.28-.25S8.6,2,8.51,1.93ZM5.07,12.87a2,2,0,1,0,2,2A2,2,0,0,0,5.07,12.87Zm0,3.37a1.41,1.41,0,1,1,1.41-1.4A1.41,1.41,0,0,1,5.07,16.24ZM8.51,1.93A2.27,2.27,0,0,0,7,1.37a2.3,2.3,0,0,0-1.38.47c-.23.17-.23.17,0,.38a.47.47,0,0,1,.1.1c.07.1.13.08.22,0a1.68,1.68,0,0,1,2-.14c.1.07.18.23.3.19s.18-.17.28-.25S8.6,2,8.51,1.93Zm0,0A2.27,2.27,0,0,0,7,1.37a2.3,2.3,0,0,0-1.38.47c-.23.17-.23.17,0,.38a.47.47,0,0,1,.1.1c.07.1.13.08.22,0a1.68,1.68,0,0,1,2-.14c.1.07.18.23.3.19s.18-.17.28-.25S8.6,2,8.51,1.93ZM5.07,12.87a2,2,0,1,0,2,2A2,2,0,0,0,5.07,12.87Zm0,3.37a1.41,1.41,0,1,1,1.41-1.4A1.41,1.41,0,0,1,5.07,16.24ZM16.58,9.71a3.75,3.75,0,0,1-.84-2.44V3.69a3.71,3.71,0,0,0,0-.47A3.08,3.08,0,0,0,11.55.73,3.12,3.12,0,0,0,9.93,2.15c-.26-.27-.5-.53-.76-.76A3,3,0,0,0,5.88.76a3.07,3.07,0,0,0-1.07,5c.87.9,1.77,1.78,2.66,2.67a3.82,3.82,0,0,1,.92,1.45.41.41,0,0,1-.05.4,2.26,2.26,0,0,0-.24.43,5,5,0,0,0-.47,1.65,5.24,5.24,0,0,0-.48-.69,2.62,2.62,0,0,0-3-.84.23.23,0,0,1-.2,0,3.14,3.14,0,0,0-1.29-.15s-.07,0-.1,0,0-.31.12-.34A2,2,0,0,0,4.09,9.12a2.8,2.8,0,0,0,.14-1.25c0-.23-.11-.33-.34-.33A2,2,0,0,0,2.66,8s-.05.08-.11.06c0-.27,0-.27.24-.34A2,2,0,0,0,4.12,6.52a3.16,3.16,0,0,0,.11-1.26A.26.26,0,0,0,3.92,5a1.91,1.91,0,0,0-1.25.48s0,.08-.12.07,0-.25,0-.37a.39.39,0,0,1,.14-.35c.19-.18.36-.37.53-.56a1.93,1.93,0,0,0,0-2.51.28.28,0,0,0-.46,0c-.29.3-.58.59-.86.91a1.91,1.91,0,0,0,0,2.43A.58.58,0,0,1,2,5.57H2a.39.39,0,0,1-.1-.08A2,2,0,0,0,.61,5a.26.26,0,0,0-.3.25,4,4,0,0,0,0,1,1.91,1.91,0,0,0,1.5,1.47c.11,0,.15.07.13.17s0,.11,0,.16A2,2,0,0,0,.65,7.54c-.23,0-.34.1-.34.33a4.69,4.69,0,0,0,0,.53A2,2,0,0,0,1.7,10.26c.29.09.28.09.29.39a.18.18,0,0,1-.14.22,1.69,1.69,0,0,0-.47.27A2.78,2.78,0,0,0,.32,13.39a4.49,4.49,0,0,0,1.46,3.47,2.93,2.93,0,0,0,1.64.8,2.52,2.52,0,0,1,.48.05,3.64,3.64,0,0,0,.79.19A3,3,0,0,0,8,15.66c0-.17.07-.33.11-.52a.82.82,0,0,1,.1.17,5,5,0,1,0,8.35-5.6ZM3.65,8.14A1.4,1.4,0,0,1,2.56,9.75,1.42,1.42,0,0,1,3.65,8.14Zm0-2.52a1.4,1.4,0,0,1-1.1,1.6A1.41,1.41,0,0,1,3.66,5.62Zm-2.78,0A1.39,1.39,0,0,1,2,7.22,1.4,1.4,0,0,1,.88,5.62ZM2.26,3.08c.2-.25.43-.47.65-.71a1.3,1.3,0,0,1-.08,1.5c-.18.23-.39.43-.59.65s-.1,0-.12,0A1.32,1.32,0,0,1,2.26,3.08ZM1.75,9.69A1.46,1.46,0,0,1,.86,8.22c0-.12.06-.07.13-.06A1.41,1.41,0,0,1,2,9.52C2,9.78,2,9.78,1.75,9.69Zm.77,7A3.88,3.88,0,0,1,.94,14.23,2.87,2.87,0,0,1,1,12.54a2,2,0,0,1,2.37-1.29A4,4,0,0,0,2,13.87a4,4,0,0,0,.59,2.88C2.57,16.79,2.54,16.74,2.52,16.72Zm4.88-.95a2.36,2.36,0,0,1-2.63,1.57A2.36,2.36,0,0,1,2.6,15.16a4,4,0,0,1,.51-2.71,2.59,2.59,0,0,1,1.14-1.08,1.93,1.93,0,0,1,2.17.34A3.46,3.46,0,0,1,7.56,14a1.73,1.73,0,0,1,0,.32,1.93,1.93,0,0,1,0,.24A3.63,3.63,0,0,1,7.4,15.77ZM7.24,7.38,5.91,6.06l-.66-.67a2.52,2.52,0,0,1,1.93-4.3,2.43,2.43,0,0,1,1.57.67c.3.28.58.58.88.87a.17.17,0,0,1,0,.18,3.25,3.25,0,0,0-.12.93q0,1.81,0,3.63a3.63,3.63,0,0,1-.61,2,.18.18,0,0,1-.11.1A5.72,5.72,0,0,0,7.24,7.38Zm4.55,9.9a4.52,4.52,0,0,1-3.55-3.57,4.31,4.31,0,0,1,.88-3.59,4.57,4.57,0,0,0,1-3c0-1.17,0-2.35,0-3.52a2.52,2.52,0,0,1,5-.1c0,.67,0,1.34,0,2V7.26a4.26,4.26,0,0,0,1,2.83,4.49,4.49,0,0,1-4.38,7.19ZM7,1.37a2.3,2.3,0,0,0-1.38.47c-.23.17-.23.17,0,.38a.47.47,0,0,1,.1.1c.07.1.13.08.22,0a1.68,1.68,0,0,1,2-.14c.1.07.18.23.3.19s.18-.17.28-.25.08-.13,0-.2A2.27,2.27,0,0,0,7,1.37Zm-2,11.5a2,2,0,1,0,2,2A2,2,0,0,0,5.07,12.87Zm0,3.37a1.41,1.41,0,1,1,1.41-1.4A1.41,1.41,0,0,1,5.07,16.24Zm0-3.37a2,2,0,1,0,2,2A2,2,0,0,0,5.07,12.87Zm0,3.37a1.41,1.41,0,1,1,1.41-1.4A1.41,1.41,0,0,1,5.07,16.24ZM8.51,1.93A2.27,2.27,0,0,0,7,1.37a2.3,2.3,0,0,0-1.38.47c-.23.17-.23.17,0,.38a.47.47,0,0,1,.1.1c.07.1.13.08.22,0a1.68,1.68,0,0,1,2-.14c.1.07.18.23.3.19s.18-.17.28-.25S8.6,2,8.51,1.93Zm0,0A2.27,2.27,0,0,0,7,1.37a2.3,2.3,0,0,0-1.38.47c-.23.17-.23.17,0,.38a.47.47,0,0,1,.1.1c.07.1.13.08.22,0a1.68,1.68,0,0,1,2-.14c.1.07.18.23.3.19s.18-.17.28-.25S8.6,2,8.51,1.93ZM5.07,12.87a2,2,0,1,0,2,2A2,2,0,0,0,5.07,12.87Zm0,3.37a1.41,1.41,0,1,1,1.41-1.4A1.41,1.41,0,0,1,5.07,16.24ZM8.51,1.93A2.27,2.27,0,0,0,7,1.37a2.3,2.3,0,0,0-1.38.47c-.23.17-.23.17,0,.38a.47.47,0,0,1,.1.1c.07.1.13.08.22,0a1.68,1.68,0,0,1,2-.14c.1.07.18.23.3.19s.18-.17.28-.25S8.6,2,8.51,1.93Zm0,0A2.27,2.27,0,0,0,7,1.37a2.3,2.3,0,0,0-1.38.47c-.23.17-.23.17,0,.38a.47.47,0,0,1,.1.1c.07.1.13.08.22,0a1.68,1.68,0,0,1,2-.14c.1.07.18.23.3.19s.18-.17.28-.25S8.6,2,8.51,1.93Zm0,0A2.27,2.27,0,0,0,7,1.37a2.3,2.3,0,0,0-1.38.47c-.23.17-.23.17,0,.38a.47.47,0,0,1,.1.1c.07.1.13.08.22,0a1.68,1.68,0,0,1,2-.14c.1.07.18.23.3.19s.18-.17.28-.25S8.6,2,8.51,1.93Zm0,0A2.27,2.27,0,0,0,7,1.37a2.3,2.3,0,0,0-1.38.47c-.23.17-.23.17,0,.38a.47.47,0,0,1,.1.1c.07.1.13.08.22,0a1.68,1.68,0,0,1,2-.14c.1.07.18.23.3.19s.18-.17.28-.25S8.6,2,8.51,1.93Zm0,0A2.27,2.27,0,0,0,7,1.37a2.3,2.3,0,0,0-1.38.47c-.23.17-.23.17,0,.38a.47.47,0,0,1,.1.1c.07.1.13.08.22,0a1.68,1.68,0,0,1,2-.14c.1.07.18.23.3.19s.18-.17.28-.25S8.6,2,8.51,1.93Zm0,0A2.27,2.27,0,0,0,7,1.37a2.3,2.3,0,0,0-1.38.47c-.23.17-.23.17,0,.38a.47.47,0,0,1,.1.1c.07.1.13.08.22,0a1.68,1.68,0,0,1,2-.14c.1.07.18.23.3.19s.18-.17.28-.25S8.6,2,8.51,1.93Z" transform="translate(-0.3 -0.51)"/><path class="cls-1" d="M8.25,9.22H7.1a1.4,1.4,0,0,0-1.34,1.35.29.29,0,0,0,.3.33c.4,0,.8,0,1.19,0A1.41,1.41,0,0,0,8.57,9.55.29.29,0,0,0,8.25,9.22Zm-1,1.11a8.61,8.61,0,0,1-.88,0,.77.77,0,0,1,.71-.55h.82A.72.72,0,0,1,7.28,10.33Z" transform="translate(-0.3 -0.51)"/><path class="cls-1" d="M15.85,13.43h0c-.17,0-.25,0-.28-.21A1.35,1.35,0,0,0,14.3,12c-.11,0-.13,0-.12-.14a1,1,0,0,0,0-.24c0-.17,0-.21.2-.19a2,2,0,0,1,1.76,1.76C16.16,13.43,16.16,13.43,15.85,13.43Z" transform="translate(-0.3 -0.51)"/><path class="cls-1" d="M14.2,10.63A2.81,2.81,0,1,0,17,13.45,2.8,2.8,0,0,0,14.2,10.63Zm0,5a2.25,2.25,0,1,1,2.26-2.25A2.25,2.25,0,0,1,14.17,15.68Z" transform="translate(-0.3 -0.51)"/><path class="cls-1" d="M14.18,2.12c0-.19.06-.2.21-.19a2.29,2.29,0,0,1,2,2c0,.22,0,.22-.28.22s-.25,0-.3-.25A1.65,1.65,0,0,0,14.3,2.5c-.1,0-.13,0-.12-.14A1,1,0,0,0,14.18,2.12Z" transform="translate(-0.3 -0.51)"/><path class="cls-1" d="M10.05,2.69c-.1.08-.18.22-.28.25s-.2-.12-.3-.19a1.68,1.68,0,0,0-2,.14c-.09.07-.15.09-.22,0a.47.47,0,0,0-.1-.1C7,2.57,7,2.57,7.18,2.4a2.3,2.3,0,0,1,1.38-.47A2.27,2.27,0,0,1,10,2.49C10.13,2.56,10.13,2.61,10.05,2.69Z" transform="translate(-0.3 -0.51)"/><path class="cls-1" d="M6.6,13.43a2,2,0,1,0,2,2A2,2,0,0,0,6.6,13.43Zm0,3.37A1.41,1.41,0,1,1,8,15.4,1.41,1.41,0,0,1,6.6,16.8Z" transform="translate(-0.3 -0.51)"/><path class="cls-1" d="M15.85,13.43h0c-.17,0-.25,0-.28-.21A1.35,1.35,0,0,0,14.3,12c-.11,0-.13,0-.12-.14a1,1,0,0,0,0-.24c0-.17,0-.21.2-.19a2,2,0,0,1,1.76,1.76C16.16,13.43,16.16,13.43,15.85,13.43Z" transform="translate(-0.3 -0.51)"/><path class="cls-1" d="M14.2,10.63A2.81,2.81,0,1,0,17,13.45,2.8,2.8,0,0,0,14.2,10.63Zm0,5a2.25,2.25,0,1,1,2.26-2.25A2.25,2.25,0,0,1,14.17,15.68Z" transform="translate(-0.3 -0.51)"/><path class="cls-1" d="M16.14,4.17c-.25,0-.25,0-.3-.25A1.65,1.65,0,0,0,14.3,2.5c-.1,0-.13,0-.12-.14a1,1,0,0,0,0-.24c0-.19.06-.2.21-.19a2.29,2.29,0,0,1,2,2C16.44,4.17,16.44,4.17,16.14,4.17Z" transform="translate(-0.3 -0.51)"/><path class="cls-1" d="M10.05,2.69c-.1.08-.18.22-.28.25s-.2-.12-.3-.19a1.68,1.68,0,0,0-2,.14c-.09.07-.15.09-.22,0a.47.47,0,0,0-.1-.1C7,2.57,7,2.57,7.18,2.4a2.3,2.3,0,0,1,1.38-.47A2.27,2.27,0,0,1,10,2.49C10.13,2.56,10.13,2.61,10.05,2.69Z" transform="translate(-0.3 -0.51)"/><path class="cls-1" d="M6.6,13.43a2,2,0,1,0,2,2A2,2,0,0,0,6.6,13.43Zm0,3.37A1.41,1.41,0,1,1,8,15.4,1.41,1.41,0,0,1,6.6,16.8Z" transform="translate(-0.3 -0.51)"/><path class="cls-1" d="M15.85,13.43h0c-.17,0-.25,0-.28-.21A1.35,1.35,0,0,0,14.3,12c-.11,0-.13,0-.12-.14a1,1,0,0,0,0-.24c0-.17,0-.21.2-.19a2,2,0,0,1,1.76,1.76C16.16,13.43,16.16,13.43,15.85,13.43Z" transform="translate(-0.3 -0.51)"/><path class="cls-1" d="M15.85,13.43h0c-.17,0-.25,0-.28-.21A1.35,1.35,0,0,0,14.3,12c-.11,0-.13,0-.12-.14a1,1,0,0,0,0-.24c0-.17,0-.21.2-.19a2,2,0,0,1,1.76,1.76C16.16,13.43,16.16,13.43,15.85,13.43Z" transform="translate(-0.3 -0.51)"/></svg>