<svg id="Layer_1" data-name="Layer 1" xmlns="http://www.w3.org/2000/svg" viewBox="0 0 17.99 17.99"><defs><style>.cls-1{fill:#726bea;}</style></defs><path class="cls-1" d="M55.52,6.51a8.47,8.47,0,0,0-.85-2.78,9,9,0,0,0-2.36-3A9.31,9.31,0,0,0,49.4-.83a9.38,9.38,0,0,0-3.79-.39,8.31,8.31,0,0,0-3.18,1,9,9,0,0,0-2.56,2,9.76,9.76,0,0,0-1.62,2.55,9.2,9.2,0,0,0-.64,4.43,8.39,8.39,0,0,0,.89,3.09,8.92,8.92,0,0,0,1.92,2.56,9,9,0,0,0,3.94,2.16,8.93,8.93,0,0,0,1.45.23H46a.08.08,0,0,1,.07,0h.07s0,0,0,0h0s0,0,0,0h.14a.26.26,0,0,1,.21,0h.39a.08.08,0,0,1,.07,0h.15a.07.07,0,0,1,.06,0h.1c.19,0,.39,0,.57-.05a8.45,8.45,0,0,0,2.75-.84A9.09,9.09,0,0,0,55.33,10a8.93,8.93,0,0,0,.23-1.45V8.38s0,0,0-.06V8.26h0s0-.05,0-.07V7.61a.26.26,0,0,1,0-.21V7.05C55.53,6.87,55.54,6.69,55.52,6.51ZM40.58,13a7.84,7.84,0,0,1-1.91-6,7.9,7.9,0,0,1,6.19-7,7.83,7.83,0,0,1,7,1.76c.11.09.11.13,0,.23-.77.76-1.53,1.53-2.29,2.3a.27.27,0,0,1-.3.08,8.6,8.6,0,0,0-7,.77,5,5,0,0,0-2,1.94,2.33,2.33,0,0,0,0,2.51,3.39,3.39,0,0,0,1.47,1.17,8.53,8.53,0,0,0,1,.37c0,.06-.06.09-.1.13L40.8,13C40.71,13.08,40.67,13.08,40.58,13Zm1.79-5.6a1.63,1.63,0,0,0,.11.31.5.5,0,0,0,.73.22,1.38,1.38,0,0,0,.48-.45,5,5,0,0,0,.86-2.29c0-.27,0-.27.3-.33l.46-.09c.13,0,.18,0,.18.14,0,.67,0,1.33,0,2a2.37,2.37,0,0,0,.1.64.55.55,0,0,0,.95.28,3,3,0,0,0,.8-1.21,5.15,5.15,0,0,0,.41-1.73c0-.13.05-.14.16-.11s.41.09.61.12.13.07.13.17q0,.78,0,1.56a3.23,3.23,0,0,0,.1.87.56.56,0,0,0,1,.31,3.15,3.15,0,0,0,.83-1.3c.08-.21.14-.42.22-.65a4,4,0,0,1,1.68,1.82,1.46,1.46,0,0,1-.54,1.92,5.7,5.7,0,0,1-2.19.94,15.05,15.05,0,0,1-4.44.3,11.49,11.49,0,0,1-2.72-.47,4.31,4.31,0,0,1-1.31-.64,1.63,1.63,0,0,1-.53-2.2A4.11,4.11,0,0,1,42.3,5.88v.3A6,6,0,0,0,42.37,7.38Zm.5-1.73c0-.05,0-.1.05-.13A6.85,6.85,0,0,1,44,5.08a4.19,4.19,0,0,1-1,2.34,1.46,1.46,0,0,1-.1-.63C42.86,6.41,42.87,6,42.87,5.65Zm3.18.91c0-.59,0-1.18,0-1.77,0-.1,0-.13.13-.13.3,0,.6,0,.91,0,.08,0,.1,0,.09.1a4.34,4.34,0,0,1-.84,2.46.42.42,0,0,1-.2.17A3,3,0,0,1,46.05,6.56Zm3.49.63a.48.48,0,0,1-.22.2,2.71,2.71,0,0,1-.09-.84c0-.44,0-.88,0-1.32,0-.1,0-.14.12-.1.28.11.56.22.82.35,0,0,.11,0,.09.13A4.13,4.13,0,0,1,49.54,7.19Zm.63,7.66a7.68,7.68,0,0,1-4.76.77,8,8,0,0,1-4.07-1.88c-.1-.09-.13-.13,0-.24l2.07-2.08a.29.29,0,0,1,.29-.08,16.11,16.11,0,0,0,6.45-.19,6.37,6.37,0,0,0,2.09-.9A2.25,2.25,0,0,0,53,7.07a5.37,5.37,0,0,0-2.06-2c-.25-.15-.51-.27-.79-.42l.63-.61,1.59-1.59c.08-.09.12-.08.19,0a8,8,0,0,1-2.38,12.37Z" transform="translate(-37.57 1.26)"/><path class="cls-1" d="M55.56,7.61a.17.17,0,0,1,0-.21Z" transform="translate(-37.57 1.26)"/><path class="cls-1" d="M46.3,16.73a.15.15,0,0,1,.21,0Z" transform="translate(-37.57 1.26)"/><path class="cls-1" d="M55.53,8.24s0-.05,0-.07v.07S55.54,8.26,55.53,8.24Z" transform="translate(-37.57 1.26)"/><path class="cls-1" d="M55.53,8.24h0v.07s0,0,0,0Z" transform="translate(-37.57 1.26)"/><path class="cls-1" d="M55.53,8.31h0v.07S55.53,8.34,55.53,8.31Z" transform="translate(-37.57 1.26)"/><path class="cls-1" d="M46,16.73s0,0,.07,0,0,0,0,0,0,0,0,0Z" transform="translate(-37.57 1.26)"/><path class="cls-1" d="M46,16.73v0h.07s0,0,0,0,0,0,0,0Z" transform="translate(-37.57 1.26)"/><path class="cls-1" d="M46.09,16.73v0a.05.05,0,0,1,.07,0Z" transform="translate(-37.57 1.26)"/><path class="cls-1" d="M46.9,16.73s0,0,.07,0v0a0,0,0,0,1,0,0Z" transform="translate(-37.57 1.26)"/><path class="cls-1" d="M47,16.73v0H47v0a0,0,0,0,1,0,0Z" transform="translate(-37.57 1.26)"/><path class="cls-1" d="M47,16.73v0h.07v0a0,0,0,0,1,0,0Z" transform="translate(-37.57 1.26)"/><path class="cls-1" d="M47.11,16.73v0s.06,0,.07,0Z" transform="translate(-37.57 1.26)"/></svg>