<svg width="21" height="21" viewBox="0 0 21 21" fill="none" xmlns="http://www.w3.org/2000/svg">
<path d="M20.293 19.7988L19.7998 20.293L12.9531 13.4463L12.6641 13.1562L12.3223 13.3838C12.0336 13.5762 11.7084 13.7946 11.3799 14.1162C10.8472 14.5601 10.2566 14.7997 9.7002 14.7998C9.11931 14.7998 8.45079 14.5435 8.05371 14.1465L7.05371 13.1465C6.16059 12.2534 6.13689 10.87 7.15332 9.85352L7.18848 9.81836L7.21582 9.77734C7.30216 9.64783 7.38919 9.53842 7.49023 9.41211C7.58918 9.28843 7.70276 9.148 7.81641 8.97754L8.04297 8.63672L7.75391 8.34668L0.707031 1.2998L1.29883 0.707031L20.293 19.7988ZM8.44629 9.74609C8.32288 9.8695 8.20489 10.0183 8.10938 10.1377C8.00502 10.2681 7.92319 10.3697 7.84668 10.4463C7.54678 10.7462 7.40039 11.1763 7.40039 11.5C7.40039 11.7074 7.39104 12.0978 7.74609 12.4531L8.74609 13.4531C9.10961 13.8166 9.61885 13.7998 9.7002 13.7998C9.8392 13.7998 10.2099 13.7969 10.5537 13.4531C10.693 13.3139 10.8155 13.2141 10.9736 13.0703C11.1197 12.9376 11.2814 12.7791 11.416 12.5771L11.6436 12.2363L8.7998 9.39258L8.44629 9.74609ZM14.5996 0.799805C15.7189 0.799805 16.8133 1.08026 17.7129 1.70996L17.7197 1.71387L17.7256 1.71777C20.9562 3.84083 21.2258 8.16676 18.7461 10.6465C18.0847 11.3079 17.3507 11.7443 16.5361 12.0283L15.7158 11.209C16.5987 11.0215 17.4022 10.6046 18.0537 9.95312C18.9908 9.01591 19.5487 7.67845 19.4277 6.2998L19.3945 6.02441C19.2705 4.56585 18.4746 3.3491 17.1777 2.48438L17.1631 2.47461L17.1484 2.46582L16.8506 2.30957C16.1466 1.96897 15.3714 1.7998 14.5996 1.7998C13.72 1.79987 12.8174 2.01894 12.0205 2.58398C10.9224 3.23447 10.2021 4.26212 9.9209 5.41406L9.16797 4.66113C9.56626 3.5065 10.3559 2.50272 11.5635 1.72461C12.504 1.16169 13.6131 0.7999 14.5996 0.799805ZM2.90039 18.2998H2.40039C2.18441 18.2998 2.01177 18.2041 1.72363 18.0137C1.34996 17.6106 1.35971 17.0475 1.75391 16.6533C1.94388 16.4634 2.12879 16.3723 2.29785 16.3428C2.46584 16.3136 2.65801 16.3384 2.87598 16.4473L3.19141 16.6045L3.44629 16.3604L5.54395 14.3457C5.61642 14.4225 5.68567 14.4933 5.74609 14.5537L6.69922 15.5068C6.75395 15.5995 6.82071 15.6894 6.90039 15.7725L4.85352 17.7393L4.58789 17.9941L4.75293 18.3232C4.86188 18.5411 4.88653 18.7334 4.85742 18.9014C4.828 19.0705 4.73688 19.2562 4.54688 19.4463C4.14214 19.851 3.55806 19.851 3.15332 19.4463C3.04476 19.3377 2.98762 19.2453 2.9541 19.1582C2.91972 19.0688 2.90039 18.9581 2.90039 18.7998V18.2998Z" fill="#726BEA" stroke="white"/>
</svg>
