<svg width="34" height="25" viewBox="0 0 34 25" fill="none" xmlns="http://www.w3.org/2000/svg">
<g clip-path="url(#clip0_415_7276)">
<path d="M23.6903 2.96541C24.3584 2.7864 25.0417 2.79309 25.6759 3.00276C26.7532 3.35253 27.5604 4.11114 27.9717 5.1311C28.1546 5.62953 28.2263 6.16193 28.1818 6.69099C28.1372 7.22005 27.9776 7.73298 27.7139 8.19383C27.2993 8.90022 26.6778 9.44635 25.9105 9.73821C24.4162 10.3112 23.2279 11.2853 22.4956 12.5771C22.4056 12.7282 22.2602 12.8383 22.0903 12.8838C21.9204 12.9293 21.7395 12.9067 21.586 12.8208L20.5756 12.2375C20.5042 12.1969 20.4417 12.1424 20.3917 12.0773C20.3416 12.0122 20.3051 11.9377 20.2842 11.8583C20.2303 11.6571 20.2714 11.4563 20.3951 11.2419C21.106 9.99894 21.3522 8.53534 21.0959 6.99933C20.9137 5.90072 21.2393 4.82996 22.0113 3.97606C22.4498 3.48759 23.0302 3.14227 23.6903 2.96541ZM23.2589 1.35554C22.3171 1.60788 21.4444 2.11781 20.7716 2.85886C19.5986 4.14804 19.1974 5.77395 19.4531 7.2756C19.6332 8.36616 19.496 9.46407 18.9539 10.403L18.9362 10.4337C18.2527 11.6176 18.6344 13.0423 19.7448 13.6766L20.7552 14.2599C21.3165 14.584 21.9463 14.6482 22.5178 14.4951C23.0893 14.3419 23.6106 13.9693 23.9347 13.408C24.5063 12.418 25.4223 11.7153 26.5088 11.2947C27.5792 10.8785 28.5284 10.1065 29.1552 9.03273C29.5472 8.35473 29.7819 7.59725 29.8417 6.81633C29.9015 6.03541 29.7851 5.25103 29.5009 4.52121C29.2167 3.79138 28.7721 3.13477 28.1999 2.59996C27.6277 2.06514 26.9426 1.6658 26.1953 1.43147C25.2378 1.11 24.2168 1.09887 23.2589 1.35554ZM19.5043 17.7699C19.8425 18.1625 19.9167 18.7292 19.6376 19.2009C19.5183 19.4111 19.3402 19.5819 19.1253 19.6924C18.9103 19.8029 18.6677 19.8483 18.4274 19.8229C18.187 19.7976 17.9592 19.7026 17.7721 19.5497C17.5849 19.3967 17.4464 19.1925 17.3736 18.962C17.1376 19.0142 16.8915 18.9964 16.6655 18.9108C16.4394 18.8251 16.2433 18.6754 16.1012 18.4799C15.959 18.2844 15.877 18.0517 15.8652 17.8103C15.8534 17.5688 15.9124 17.3292 16.0348 17.1208C16.3058 16.6513 16.8397 16.422 17.3406 16.5207L18.8128 14.0298C18.9664 14.1526 19.1427 14.2951 19.3264 14.4012L20.3368 14.9846C20.549 15.1003 20.7466 15.194 20.9883 15.2586L19.5043 17.7699Z" fill="#726BEA"/>
</g>
<path d="M6.9213 4.83286C7.22906 4.26394 7.68846 3.79143 8.2485 3.46778C8.80854 3.14414 9.44731 2.98202 10.0939 2.99942C10.7405 3.01683 11.3696 3.21307 11.9115 3.56637C12.4533 3.91967 12.8866 4.41621 13.1633 5.00086C12.4349 5.01727 11.727 5.24551 11.1263 5.6577C10.5255 6.06989 10.0578 6.64817 9.7803 7.32186C9.52411 6.89566 9.21758 6.50183 8.8673 6.14886C8.30395 5.59564 7.64451 5.14969 6.9213 4.83286ZM16.9903 8.99986C16.9956 8.91719 16.9983 8.83386 16.9983 8.74986C16.9986 7.93732 16.735 7.14665 16.2472 6.49685C15.7594 5.84705 15.0737 5.37329 14.2933 5.14686C14.0238 4.29297 13.5057 3.53884 12.8054 2.98088C12.1051 2.42292 11.2543 2.08648 10.3617 2.01455C9.4692 1.94262 8.5755 2.13848 7.79485 2.5771C7.01421 3.01571 6.38209 3.67715 5.9793 4.47686C5.58153 4.35302 5.17641 4.25416 4.7663 4.18086C4.07266 4.05625 3.36904 3.99566 2.6643 3.99986L2.4803 4.00586H2.4763C2.35398 4.013 2.23854 4.06482 2.1519 4.15146C2.06526 4.2381 2.01345 4.35354 2.0063 4.47586V4.47686L1.9983 4.66486C1.99359 5.37056 2.05384 6.0752 2.1783 6.76986C2.3013 7.45186 2.5093 8.23386 2.8633 8.99986H2.4983C2.3657 8.99986 2.23852 9.05254 2.14475 9.14631C2.05098 9.24008 1.9983 9.36725 1.9983 9.49986V9.99986C1.9983 10.6899 2.0863 11.3599 2.2503 11.9999H17.7463C17.9143 11.3465 17.999 10.6745 17.9983 9.99986V9.49986C17.9983 9.36725 17.9456 9.24008 17.8519 9.14631C17.7581 9.05254 17.6309 8.99986 17.4983 8.99986H16.9903ZM3.9823 8.99986C3.5483 8.21786 3.3003 7.36086 3.1623 6.59186C3.06799 6.06675 3.01383 5.53521 3.0003 5.00186L3.1143 5.00586C3.4863 5.01886 4.0043 5.05886 4.5883 5.16486C5.7683 5.37786 7.1543 5.84986 8.1603 6.85586C8.7763 7.47186 9.1933 8.23186 9.4733 8.99986H7.7063L5.8523 7.14586C5.80582 7.09944 5.75064 7.06263 5.68992 7.03753C5.62921 7.01243 5.56415 6.99954 5.49845 6.99958C5.43275 6.99963 5.36771 7.01262 5.30703 7.0378C5.24635 7.06298 5.19123 7.09987 5.1448 7.14636C5.09838 7.19285 5.06157 7.24803 5.03647 7.30874C5.01137 7.36945 4.99848 7.43452 4.99853 7.50021C4.99857 7.56591 5.01156 7.63096 5.03674 7.69164C5.06193 7.75232 5.09882 7.80744 5.1453 7.85386L6.2923 8.99986H3.9823ZM10.5303 8.99986L10.5033 8.91886C10.4815 8.5416 10.5378 8.1639 10.6685 7.80933C10.7992 7.45476 11.0016 7.13094 11.263 6.85806C11.5244 6.58519 11.8393 6.36913 12.1879 6.22335C12.5366 6.07758 12.9115 6.00522 13.2893 6.0108C13.6672 6.01638 14.0398 6.09978 14.384 6.25578C14.7282 6.41179 15.0366 6.63706 15.2898 6.91753C15.5431 7.198 15.7358 7.52766 15.856 7.88593C15.9761 8.24421 16.0212 8.6234 15.9883 8.99986H10.5303ZM9.9983 17.9999C8.40443 18.0002 6.84678 17.5245 5.52511 16.6336C4.20344 15.7428 3.17801 14.4774 2.5803 12.9999H17.4173C16.8195 14.4776 15.7939 15.743 14.4721 16.6339C13.1502 17.5248 11.5923 18.0004 9.9983 17.9999Z" fill="#726BEA"/>
<defs>
<clipPath id="clip0_415_7276">
<rect width="20" height="20" fill="white" transform="translate(9 5.17627) rotate(-15)"/>
</clipPath>
</defs>
</svg>
