<svg width="18" height="18" viewBox="0 0 18 18" fill="none" xmlns="http://www.w3.org/2000/svg">
<path d="M6.8 1.8375V0H7.8V1.8765L7.7985 1.895C7.78568 2.07064 7.74395 2.24296 7.675 2.405C7.9185 2.493 7.935 2.78 7.9425 2.921C7.94383 2.94433 7.94517 2.96283 7.9465 2.9765C8.3045 3.1435 8.51 3.5635 8.4135 3.968C8.317 4.3725 7.9515 4.6225 7.567 4.567C7.45039 4.73487 7.30933 4.88436 7.1485 5.0105C7.201 5.417 6.9655 5.803 6.583 5.9055C6.2005 6.008 5.803 5.791 5.6455 5.413C5.4432 5.3841 5.24636 5.32512 5.0615 5.238C4.7565 5.478 4.315 5.445 4.029 5.143C3.92852 5.03635 3.85609 4.90642 3.81821 4.76487C3.78034 4.62332 3.7782 4.47458 3.812 4.332C3.2785 4.446 2.6085 4.6885 2.06 5.134C1.4685 5.614 1 6.3425 1 7.481V13.028H0V7.4815C0 6.0165 0.6245 5.0115 1.4295 4.358C2.216 3.719 3.156 3.427 3.8145 3.313C5.279 3.059 6.0285 2.7115 6.407 2.4205C6.741 2.1635 6.7895 1.95 6.8 1.8375ZM11.686 0V1.99C11.708 2.1285 11.781 2.3345 12.071 2.5605C12.3995 2.8175 13.021 3.111 14.1855 3.313C14.844 3.427 15.784 3.719 16.5705 4.358C17.3755 5.012 18.0005 6.0165 18.0005 7.481V13.028H17.0005V7.4815C17.0005 6.3425 16.5315 5.6145 15.9405 5.134C15.3305 4.639 14.5705 4.3945 14.0145 4.298C12.767 4.082 11.9645 3.7465 11.4545 3.3485C10.926 2.9355 10.7375 2.472 10.6895 2.0865L10.686 2.0555V0H11.686Z" fill="white"/>
<path d="M14.343 5.6665C14.1792 5.6661 14.0169 5.69816 13.8656 5.76083C13.7142 5.8235 13.5768 5.91554 13.4612 6.03162C13.3457 6.14771 13.2542 6.28554 13.1922 6.43717C13.1302 6.58879 13.0989 6.75119 13.1 6.915V7.299C12.7375 6.982 12.157 6.902 11.687 7.134C11.1795 7.384 10.977 7.9115 11.1885 8.3625C11.0081 8.55694 10.8586 8.77782 10.745 9.0175C10.182 9.087 9.749 9.5005 9.749 10.0005C9.749 10.5005 10.182 10.9145 10.745 10.9835C10.856 11.2205 11.006 11.441 11.1885 11.6385C10.9765 12.09 11.1795 12.617 11.687 12.8675C12.157 13.099 12.7375 13.0185 13.1 12.7015V18H14.1V6.915C14.1 6.7705 14.208 6.6665 14.343 6.6665C14.46 6.6665 14.536 6.6885 14.584 6.7105C14.6232 6.72758 14.6583 6.75283 14.6869 6.78456C14.7155 6.81629 14.737 6.85378 14.75 6.8945V13.028H15.75V6.8685C15.75 6.6665 15.656 6.3775 15.4485 6.137C15.2175 5.869 14.852 5.6665 14.343 5.6665ZM2.5515 6.137C2.7825 5.869 3.148 5.667 3.657 5.667C4.475 5.6665 5 6.355 5 7.075V13.11C5.1675 12.985 5.408 12.961 5.605 13.0665C5.84 13.1915 5.9335 13.4555 5.8355 13.681C5.92017 13.7803 5.9885 13.8895 6.0405 14.0085C6.3005 14.0435 6.5 14.25 6.5 14.5C6.5 14.75 6.3 14.957 6.04 14.9915C5.98852 15.1102 5.91959 15.2206 5.8355 15.319C5.9335 15.5445 5.8395 15.8085 5.6055 15.9335C5.51056 15.9835 5.40354 16.0059 5.29654 15.9982C5.18954 15.9905 5.08682 15.953 5 15.89V18H4V7.075C4 6.807 3.827 6.6665 3.657 6.6665C3.5405 6.6665 3.464 6.6885 3.416 6.7105C3.37682 6.72758 3.34174 6.75283 3.31311 6.78456C3.28448 6.81629 3.26297 6.85378 3.25 6.8945V13.028H2.25V6.8685C2.25 6.6665 2.344 6.3775 2.5515 6.137ZM9.5 4.5C9.63261 4.5 9.75979 4.44732 9.85355 4.35355C9.94732 4.25979 10 4.13261 10 4C10 3.86739 9.94732 3.74021 9.85355 3.64645C9.75979 3.55268 9.63261 3.5 9.5 3.5C9.36739 3.5 9.24021 3.55268 9.14645 3.64645C9.05268 3.74021 9 3.86739 9 4C9 4.13261 9.05268 4.25979 9.14645 4.35355C9.24021 4.44732 9.36739 4.5 9.5 4.5ZM8.5 6C8.63261 6 8.75979 5.94732 8.85355 5.85355C8.94732 5.75979 9 5.63261 9 5.5C9 5.36739 8.94732 5.24021 8.85355 5.14645C8.75979 5.05268 8.63261 5 8.5 5C8.36739 5 8.24021 5.05268 8.14645 5.14645C8.05268 5.24021 8 5.36739 8 5.5C8 5.63261 8.05268 5.75979 8.14645 5.85355C8.24021 5.94732 8.36739 6 8.5 6Z" fill="white"/>
<path d="M7.25 13.1125C7.25 13.2451 7.19732 13.3723 7.10355 13.4661C7.00979 13.5598 6.88261 13.6125 6.75 13.6125C6.61739 13.6125 6.49021 13.5598 6.39645 13.4661C6.30268 13.3723 6.25 13.2451 6.25 13.1125C6.25 12.9799 6.30268 12.8527 6.39645 12.7589C6.49021 12.6652 6.61739 12.6125 6.75 12.6125C6.88261 12.6125 7.00979 12.6652 7.10355 12.7589C7.19732 12.8527 7.25 12.9799 7.25 13.1125ZM7.5 15C7.63261 15 7.75979 14.9473 7.85355 14.8536C7.94732 14.7598 8 14.6326 8 14.5C8 14.3674 7.94732 14.2402 7.85355 14.1464C7.75979 14.0527 7.63261 14 7.5 14C7.36739 14 7.24021 14.0527 7.14645 14.1464C7.05268 14.2402 7 14.3674 7 14.5C7 14.6326 7.05268 14.7598 7.14645 14.8536C7.24021 14.9473 7.36739 15 7.5 15ZM10.929 13.0895C10.9943 13.1007 11.0568 13.1247 11.1128 13.1602C11.1687 13.1957 11.2171 13.242 11.255 13.2964C11.2929 13.3508 11.3196 13.4122 11.3336 13.477C11.3476 13.5418 11.3485 13.6087 11.3364 13.6739C11.3242 13.739 11.2993 13.8011 11.2629 13.8566C11.2266 13.912 11.1796 13.9597 11.1246 13.9967C11.0697 14.0338 11.0079 14.0596 10.9429 14.0726C10.8779 14.0857 10.811 14.0856 10.746 14.0725C10.6173 14.0465 10.5039 13.971 10.4304 13.8622C10.357 13.7533 10.3292 13.62 10.3533 13.4909C10.3773 13.3618 10.4512 13.2473 10.5589 13.1722C10.6666 13.0971 10.7996 13.0674 10.929 13.0895ZM10.1745 11.6775C10.2398 11.6887 10.3023 11.7127 10.3583 11.7482C10.4142 11.7837 10.4626 11.83 10.5005 11.8844C10.5384 11.9388 10.5651 12.0002 10.5791 12.065C10.5931 12.1298 10.594 12.1967 10.5819 12.2619C10.5697 12.327 10.5448 12.3891 10.5084 12.4446C10.4721 12.5 10.4251 12.5477 10.3701 12.5847C10.3152 12.6218 10.2534 12.6476 10.1884 12.6606C10.1234 12.6737 10.0565 12.6736 9.9915 12.6605C9.86277 12.6345 9.74942 12.559 9.67594 12.4502C9.60245 12.3413 9.57474 12.208 9.59877 12.0789C9.6228 11.9498 9.69666 11.8353 9.80439 11.7602C9.91211 11.6851 10.0451 11.6554 10.1745 11.6775ZM10 7.5C10.1326 7.5 10.2598 7.55268 10.3536 7.64645C10.4473 7.74021 10.5 7.86739 10.5 8C10.5 8.13261 10.4473 8.25979 10.3536 8.35355C10.2598 8.44732 10.1326 8.5 10 8.5C9.86739 8.5 9.74021 8.44732 9.64645 8.35355C9.55268 8.25979 9.5 8.13261 9.5 8C9.5 7.86739 9.55268 7.74021 9.64645 7.64645C9.74021 7.55268 9.86739 7.5 10 7.5Z" fill="white"/>
</svg>
