<svg width="18" height="18" viewBox="0 0 18 18" fill="none" xmlns="http://www.w3.org/2000/svg">
<path d="M0 9C0 4.0295 4.0295 0 9 0V1C4.5815 1 1 4.5815 1 9C1 13.4185 4.5815 17 9 17C13.4185 17 17 13.4185 17 9C17 8.2005 16.883 7.429 16.665 6.7005L17.6225 6.413C17.8736 7.25236 18.0008 8.12389 18 9C18 13.9705 13.9705 18 9 18C4.0295 18 0 13.9705 0 9Z" fill="white"/>
<path d="M6.26465 3.976C6.15075 4.04278 6.06788 4.15189 6.03413 4.27954C6.00038 4.40719 6.01849 4.543 6.08451 4.65735C6.15053 4.77169 6.2591 4.85528 6.38652 4.88987C6.51394 4.92447 6.64987 4.90726 6.76465 4.842L7.23265 4.5715L7.00715 6.4465C6.99606 6.53864 7.01083 6.63206 7.04982 6.71628C7.08881 6.80051 7.15047 6.87222 7.2279 6.92339C7.30533 6.97456 7.39547 7.00317 7.48824 7.00601C7.581 7.00886 7.67273 6.98583 7.75315 6.9395L9.25415 6.073C9.31147 6.04041 9.36178 5.9968 9.40218 5.94469C9.44258 5.89257 9.47228 5.83298 9.48955 5.76935C9.50683 5.70571 9.51135 5.63928 9.50285 5.57389C9.49435 5.5085 9.473 5.44544 9.44003 5.38834C9.40706 5.33123 9.36312 5.28121 9.31074 5.24116C9.25836 5.2011 9.19857 5.1718 9.13482 5.15495C9.07107 5.1381 9.00462 5.13402 8.93929 5.14295C8.87395 5.15188 8.81104 5.17365 8.75415 5.207L8.11915 5.5735L8.34515 3.6985C8.35624 3.60636 8.34146 3.51294 8.30248 3.42872C8.26349 3.34449 8.20183 3.27278 8.1244 3.22161C8.04697 3.17044 7.95683 3.14183 7.86406 3.13899C7.7713 3.13614 7.67957 3.15917 7.59915 3.2055L6.26465 3.976ZM9.90815 1.647C9.89114 1.58357 9.88678 1.51741 9.89534 1.4523C9.9039 1.38719 9.9252 1.3244 9.95803 1.26753C9.99085 1.21065 10.0346 1.16079 10.0867 1.12081C10.1388 1.08083 10.1982 1.0515 10.2616 1.0345L12.1936 0.517C12.2833 0.492975 12.3779 0.494389 12.4668 0.521085C12.5557 0.54778 12.6355 0.598703 12.6971 0.668149C12.7587 0.737595 12.7997 0.822821 12.8156 0.914283C12.8316 1.00575 12.8217 1.09983 12.7871 1.186L11.7626 3.7385L12.9701 3.415C13.0968 3.38466 13.2304 3.40496 13.3423 3.47158C13.4543 3.5382 13.5358 3.64588 13.5695 3.7717C13.6033 3.89752 13.5866 4.03155 13.523 4.14525C13.4595 4.25896 13.354 4.34336 13.2291 4.3805L11.0556 4.963C10.966 4.98702 10.8714 4.98561 10.7825 4.95892C10.6936 4.93222 10.6138 4.8813 10.5522 4.81185C10.4906 4.7424 10.4496 4.65718 10.4336 4.56572C10.4177 4.47426 10.4276 4.38017 10.4621 4.294L11.4866 1.742L10.5206 2.0005C10.4572 2.01751 10.3911 2.02187 10.326 2.01331C10.2608 2.00475 10.1981 1.98345 10.1412 1.95062C10.0843 1.9178 10.0344 1.87409 9.99446 1.82199C9.95448 1.7699 9.92515 1.71043 9.90815 1.647ZM15.2776 0C15.145 0 15.0179 0.0526785 14.9241 0.146447C14.8303 0.240215 14.7776 0.367392 14.7776 0.5C14.7776 0.632608 14.8303 0.759785 14.9241 0.853553C15.0179 0.947321 15.145 1 15.2776 1H16.5976L14.5756 4.235C14.5283 4.31069 14.5022 4.39765 14.4998 4.48688C14.4975 4.5761 14.5191 4.66432 14.5623 4.74238C14.6056 4.82045 14.669 4.88551 14.7459 4.93081C14.8228 4.97611 14.9104 5 14.9996 5H17.4996C17.6323 5 17.7594 4.94732 17.8532 4.85355C17.947 4.75979 17.9996 4.63261 17.9996 4.5C17.9996 4.36739 17.947 4.24021 17.8532 4.14645C17.7594 4.05268 17.6323 4 17.4996 4H15.9016L17.9236 0.765C17.971 0.689314 17.9971 0.602346 17.9995 0.513124C18.0018 0.423902 17.9802 0.33568 17.937 0.257616C17.8937 0.179552 17.8303 0.114492 17.7534 0.069191C17.6765 0.0238902 17.5889 -2.105e-07 17.4996 0H15.2776ZM3.44365 10.553C3.48165 10.9245 3.81515 11.2015 4.20165 11.3245C4.60565 11.4525 5.12915 11.442 5.68515 11.201C5.93418 11.0965 6.15807 10.9401 6.34189 10.7422C6.52571 10.5443 6.66523 10.3095 6.75115 10.0535C6.89615 9.6195 6.87615 9.1435 6.67515 8.841C6.65189 8.80601 6.62019 8.77744 6.58297 8.75795C6.54575 8.73845 6.50422 8.72864 6.46221 8.72944C6.4202 8.73024 6.37907 8.74161 6.34261 8.76251C6.30616 8.7834 6.27556 8.81315 6.25365 8.849C5.60665 9.9045 4.68165 10.369 3.71615 10.279C3.67936 10.2755 3.64225 10.2802 3.60749 10.2927C3.57273 10.3053 3.54118 10.3254 3.51512 10.3516C3.48906 10.3778 3.46913 10.4094 3.45678 10.4443C3.44442 10.4791 3.43993 10.5162 3.44365 10.553ZM13.1396 7.955C13.2926 8.2955 13.1426 8.702 12.8696 9.002C12.5836 9.315 12.1246 9.567 11.5231 9.637C11.2551 9.67105 10.9829 9.64755 10.7247 9.56805C10.4664 9.48856 10.2281 9.3549 10.0256 9.176C9.68365 8.8725 9.46315 8.451 9.48565 8.088C9.48827 8.04606 9.50143 8.00545 9.52389 7.96993C9.54636 7.93442 9.57743 7.90514 9.6142 7.88481C9.65098 7.86447 9.6923 7.85374 9.73432 7.8536C9.77635 7.85346 9.81773 7.86391 9.85465 7.884C10.9426 8.475 11.9761 8.4145 12.7671 7.8535C12.7973 7.83217 12.8317 7.81777 12.8681 7.81134C12.9044 7.80491 12.9417 7.80661 12.9774 7.81631C13.013 7.82602 13.046 7.84348 13.0741 7.86746C13.1021 7.89144 13.1245 7.92134 13.1396 7.955ZM13.2236 12.9275C12.0982 11.3855 10.4301 10.57 8.87015 10.988C7.31015 11.4065 6.27315 12.946 6.06965 14.8445C6.01215 15.379 6.53115 15.756 7.05015 15.617L12.7601 14.087C13.2796 13.9475 13.5401 13.362 13.2236 12.9275Z" fill="white"/>
</svg>
