<svg width="18" height="18" viewBox="0 0 18 18" fill="none" xmlns="http://www.w3.org/2000/svg">
<path fill-rule="evenodd" clip-rule="evenodd" d="M7.79243 2.09351L7.78943 2.09601L7.78293 1.97951L7.77893 1.90101C7.76093 1.57151 7.73293 1.07301 7.52993 0.67951C7.41348 0.443311 7.22344 0.251341 6.98843 0.13251C6.73093 0.00500961 6.43693 -0.0244902 6.12293 0.0185098C5.84443 0.0570098 5.59793 0.16851 5.40293 0.35701C5.21193 0.54151 5.09793 0.77201 5.03593 1.00851C4.91443 1.46601 4.96593 2.01351 5.09093 2.54001C5.34443 3.60501 5.95993 4.83301 6.65243 5.66851C6.91893 5.99001 7.00043 6.47451 7.00043 6.68351V7.78201L8.00043 8.03101V7.37601C8.44193 7.21201 8.73993 7.13751 9.01943 7.13151C9.29043 7.12651 9.57943 7.18551 10.0004 7.35901V8.03101L11.0004 7.78201V6.68301C11.0004 6.47451 11.0824 5.99001 11.3484 5.66851C12.0359 4.83851 12.6824 3.61601 12.9684 2.55451C13.1094 2.03051 13.1799 1.48351 13.0739 1.02401C13.0194 0.78651 12.9124 0.55101 12.7229 0.36251C12.5294 0.16951 12.2814 0.0570098 12.0029 0.0185098C11.6889 -0.0244902 11.3944 0.00500961 11.1374 0.13251C10.8774 0.26151 10.7059 0.46551 10.5954 0.67951C10.3924 1.07301 10.3649 1.57151 10.3469 1.90101L10.3424 1.97951L10.3359 2.09601L10.3329 2.09351C10.0944 1.88151 9.77843 1.80901 9.56543 1.77851C9.4196 1.75827 9.27265 1.74724 9.12543 1.74551H9.00043C8.85323 1.74708 8.70627 1.75793 8.56043 1.77801C8.34693 1.80901 8.03143 1.88151 7.79243 2.09301M8.45743 2.83701L8.47243 2.82801L8.50043 2.81451V5.03951H9.50043V2.77801C9.53976 2.78601 9.57376 2.79534 9.60243 2.80601C9.6253 2.81421 9.64725 2.82477 9.66793 2.83751C9.87943 3.02501 10.0944 3.18351 10.3099 3.25551C10.4259 3.29401 10.5734 3.31851 10.7319 3.28001C10.882 3.2432 11.0149 3.15601 11.1084 3.03301C11.2509 2.84801 11.2894 2.61301 11.3074 2.47151C11.3254 2.33201 11.3339 2.17151 11.3414 2.02551L11.3454 1.95451C11.3654 1.58251 11.3964 1.30651 11.4854 1.13451C11.5204 1.06551 11.5534 1.03901 11.5824 1.02451C11.6144 1.00851 11.6944 0.982009 11.8664 1.00551C11.9564 1.01801 11.9954 1.04601 12.0164 1.06701C12.0409 1.09151 12.0754 1.14201 12.0994 1.24701C12.1509 1.47051 12.1279 1.82951 12.0024 2.29551C11.7554 3.21401 11.1774 4.30951 10.5774 5.03351C10.2424 5.43751 10.0924 5.93301 10.0329 6.30601C9.67593 6.18751 9.34393 6.12751 8.99893 6.13451C8.65893 6.14151 8.32743 6.21401 7.97143 6.32901C7.91493 5.95351 7.76493 5.44551 7.42343 5.03351C6.82843 4.31501 6.28193 3.22501 6.06443 2.30951C5.95443 1.84651 5.94293 1.48751 6.00293 1.26201C6.03093 1.15651 6.06843 1.10101 6.09843 1.07201C6.12493 1.04701 6.16843 1.01801 6.25943 1.00551C6.43093 0.982009 6.51093 1.00851 6.54293 1.02451C6.57193 1.03901 6.60493 1.06551 6.64043 1.13451C6.72943 1.30651 6.76043 1.58251 6.78043 1.95451L6.78443 2.02551C6.79193 2.17151 6.80043 2.33201 6.81793 2.47151C6.83643 2.61301 6.87443 2.84801 7.01693 3.03301C7.10143 3.14201 7.22593 3.23901 7.39343 3.28001C7.55243 3.31851 7.69993 3.29401 7.81543 3.25551C8.03143 3.18351 8.24593 3.02551 8.45793 2.83701M9.00043 18C10.1054 18 11.0004 17.1075 11.0004 16.0065V14.9265L10.0004 13.8465V14.668C9.55893 14.8315 9.26093 14.906 8.98143 14.912C8.71043 14.917 8.42143 14.858 8.00043 14.6845V13.8465L7.00043 14.9265V16.0065C7.00136 16.5361 7.21258 17.0436 7.58764 17.4174C7.96269 17.7912 8.47088 18.0008 9.00043 18ZM9.00043 17.003C8.44793 17.003 8.00043 16.557 8.00043 16.0065V15.7475C8.34543 15.8595 8.66793 15.9155 9.00193 15.9085C9.33293 15.902 9.65593 15.8335 10.0004 15.7235V16.006C10.0002 16.1371 9.97421 16.2669 9.92385 16.388C9.87349 16.5091 9.79978 16.619 9.70692 16.7116C9.61406 16.8042 9.50387 16.8776 9.38265 16.9276C9.26144 16.9776 9.13156 17.0032 9.00043 17.003Z" fill="white"/>
<path d="M2.5 6.53606C2.63235 6.53606 2.7593 6.48359 2.85302 6.39015C2.94675 6.2967 2.9996 6.16991 3 6.03756C2.9996 5.90522 2.94675 5.77842 2.85302 5.68498C2.7593 5.59153 2.63235 5.53906 2.5 5.53906C2.224 5.53906 2 5.76206 2 6.03756C2 6.31306 2.224 6.53606 2.5 6.53606ZM4 8.03106C4 8.16367 3.94732 8.29085 3.85355 8.38462C3.75979 8.47838 3.63261 8.53106 3.5 8.53106C3.36739 8.53106 3.24021 8.47838 3.14645 8.38462C3.05268 8.29085 3 8.16367 3 8.03106C3 7.89845 3.05268 7.77128 3.14645 7.67751C3.24021 7.58374 3.36739 7.53106 3.5 7.53106C3.63261 7.53106 3.75979 7.58374 3.85355 7.67751C3.94732 7.77128 4 7.89845 4 8.03106ZM2.5 10.5236C2.63235 10.5236 2.7593 10.4711 2.85302 10.3776C2.94675 10.2842 2.9996 10.1574 3 10.0251C2.9996 9.89271 2.94675 9.76592 2.85302 9.67248C2.7593 9.57903 2.63235 9.52656 2.5 9.52656C2.224 9.52656 2 9.74956 2 10.0251C2 10.3006 2.224 10.5236 2.5 10.5236ZM5.5 12.5171C5.5 12.6497 5.44732 12.7768 5.35355 12.8706C5.25979 12.9644 5.13261 13.0171 5 13.0171C4.86739 13.0171 4.74021 12.9644 4.64645 12.8706C4.55268 12.7768 4.5 12.6497 4.5 12.5171C4.5 12.3845 4.55268 12.2573 4.64645 12.1635C4.74021 12.0697 4.86739 12.0171 5 12.0171C5.13261 12.0171 5.25979 12.0697 5.35355 12.1635C5.44732 12.2573 5.5 12.3845 5.5 12.5171ZM3 13.0156C3.276 13.0156 3.5 12.7926 3.5 12.5171C3.4996 12.3847 3.44675 12.2579 3.35302 12.1645C3.2593 12.071 3.13235 12.0186 3 12.0186C2.724 12.0186 2.5 12.2421 2.5 12.5171C2.5 12.7921 2.724 13.0156 3 13.0156ZM5.5 10.5236C5.5 10.6562 5.44732 10.7833 5.35355 10.8771C5.25979 10.9709 5.13261 11.0236 5 11.0236C4.86739 11.0236 4.74021 10.9709 4.64645 10.8771C4.55268 10.7833 4.5 10.6562 4.5 10.5236C4.5 10.391 4.55268 10.2638 4.64645 10.17C4.74021 10.0762 4.86739 10.0236 5 10.0236C5.13261 10.0236 5.25979 10.0762 5.35355 10.17C5.44732 10.2638 5.5 10.391 5.5 10.5236ZM7 11.5201C7.276 11.5201 7.5 11.2971 7.5 11.0221C7.4996 10.8897 7.44675 10.7629 7.35302 10.6695C7.2593 10.576 7.13235 10.5236 7 10.5236C6.93227 10.5198 6.86449 10.53 6.80081 10.5533C6.73712 10.5767 6.67887 10.6128 6.62961 10.6594C6.58035 10.7061 6.54111 10.7622 6.5143 10.8246C6.48748 10.8869 6.47365 10.954 6.47365 11.0218C6.47365 11.0896 6.48748 11.1568 6.5143 11.2191C6.54111 11.2814 6.58035 11.3376 6.62961 11.3842C6.67887 11.4308 6.73712 11.4669 6.80081 11.4903C6.86449 11.5136 6.93227 11.5238 7 11.5201ZM15 6.03756C15 6.17017 15.0527 6.29735 15.1464 6.39112C15.2402 6.48488 15.3674 6.53756 15.5 6.53756C15.6326 6.53756 15.7598 6.48488 15.8536 6.39112C15.9473 6.29735 16 6.17017 16 6.03756C15.9996 5.90522 15.9467 5.77842 15.853 5.68498C15.7593 5.59153 15.6323 5.53906 15.5 5.53906C15.224 5.53906 15 5.76206 15 6.03756ZM14.5 8.53006C14.4327 8.53308 14.3654 8.52242 14.3023 8.49873C14.2392 8.47504 14.1815 8.43881 14.1328 8.39222C14.0841 8.34563 14.0453 8.28966 14.0188 8.22767C13.9923 8.16568 13.9787 8.09897 13.9787 8.03156C13.9787 7.96415 13.9923 7.89744 14.0188 7.83546C14.0453 7.77347 14.0841 7.71749 14.1328 7.67091C14.1815 7.62432 14.2392 7.58809 14.3023 7.5644C14.3654 7.5407 14.4327 7.53005 14.5 7.53306C14.776 7.53306 15 7.75606 15 8.03106C15 8.30606 14.776 8.53006 14.5 8.53006ZM11 11.5201C10.724 11.5201 10.5 11.2971 10.5 11.0221C10.5 10.7466 10.724 10.5236 11 10.5236C11.276 10.5236 11.5 10.7466 11.5 11.0221C11.5 11.2976 11.276 11.5201 11 11.5201ZM9.5 11.0221C9.5 11.2971 9.276 11.5201 9 11.5201C8.724 11.5201 8.5 11.2971 8.5 11.0221C8.5 10.7466 8.724 10.5236 9 10.5236C9.276 10.5236 9.5 10.7466 9.5 11.0221Z" fill="white"/>
<path fill-rule="evenodd" clip-rule="evenodd" d="M13.613 4.40494C13.9155 3.65444 14.323 3.08794 14.819 2.77544C15.3415 2.44694 15.933 2.42344 16.459 2.72544C16.955 3.00994 17.336 3.54744 17.592 4.23144C17.8505 4.92394 18 5.81244 18 6.87544V11.9534C18 12.3764 17.918 13.3564 17.4415 14.2504C16.9465 15.1779 16.0225 16.0064 14.423 16.0064C13.6255 16.0064 13.03 15.7814 12.547 15.4324C12.1145 15.1199 11.784 14.7139 11.497 14.3609L11.439 14.2894C11.124 13.9034 10.845 13.5774 10.4805 13.3374C10.1305 13.1069 9.677 12.9409 9 12.9409C8.323 12.9409 7.8695 13.1069 7.52 13.3374C7.155 13.5774 6.876 13.9034 6.561 14.2894L6.503 14.3609C6.216 14.7139 5.8855 15.1199 5.453 15.4324C4.97 15.7814 4.3745 16.0064 3.577 16.0064C1.9775 16.0064 1.0535 15.1779 0.5585 14.2504C0.082 13.3564 0 12.3764 0 11.9534V6.87494C0 5.81194 0.1495 4.92344 0.408 4.23094C0.664 3.54694 1.045 3.00944 1.5405 2.72494C2.067 2.42294 2.6585 2.44644 3.1805 2.77494C3.6765 3.08744 4.0845 3.65394 4.387 4.40444C4.464 4.59544 4.539 4.80094 4.6175 5.01594C4.877 5.72594 5.174 6.53894 5.696 7.26694C6.343 8.16844 7.318 8.89694 9 8.89694C10.682 8.89694 11.657 8.16844 12.304 7.26694C12.826 6.53894 13.123 5.72594 13.3825 5.01644C13.4559 4.81116 13.5328 4.60713 13.613 4.40444M4.883 7.84694C5.69 8.97194 6.951 9.89394 9 9.89394C11.049 9.89394 12.31 8.97194 13.117 7.84694C13.7285 6.99444 14.091 5.99844 14.352 5.28044C14.4215 5.09044 14.4835 4.91944 14.541 4.77544C14.801 4.13144 15.1015 3.77644 15.353 3.61794C15.578 3.47644 15.772 3.48094 15.9605 3.58894C16.1805 3.71494 16.4445 4.01644 16.655 4.57894C16.862 5.13394 17 5.89894 17 6.87494V8.62144C16.8593 8.54941 16.7041 8.5101 16.546 8.50644C15.8725 8.48944 15.3275 8.95794 15.251 9.58344C14.9391 9.69647 14.6457 9.8552 14.3805 10.0544C13.767 9.80444 13.063 10.0129 12.741 10.5694C12.419 11.1259 12.5895 11.8374 13.1135 12.2419C13.0734 12.5704 13.0821 12.903 13.1395 13.2289C12.9908 13.3402 12.8697 13.4842 12.7856 13.6498C12.7015 13.8155 12.6566 13.9982 12.6545 14.1839C12.5235 14.0389 12.392 13.8774 12.249 13.7019L12.215 13.6599C11.905 13.2799 11.54 12.8399 11.0315 12.5049C10.509 12.1609 9.8615 11.9434 9 11.9434C8.1385 11.9434 7.491 12.1609 6.9685 12.5049C6.4605 12.8399 6.0955 13.2799 5.785 13.6599L5.751 13.7019C5.442 14.0809 5.1885 14.3919 4.866 14.6249C4.554 14.8499 4.164 15.0089 3.577 15.0089C2.407 15.0089 1.793 14.4404 1.4415 13.7819C1.0715 13.0889 1 12.2919 1 11.9534V6.87494C1 5.89894 1.138 5.13394 1.345 4.57944C1.5555 4.01644 1.82 3.71494 2.0395 3.58944C2.228 3.48094 2.422 3.47644 2.647 3.61794C2.898 3.77644 3.199 4.13144 3.459 4.77594C3.5165 4.91944 3.579 5.08994 3.648 5.28044C3.909 5.99844 4.2715 6.99444 4.883 7.84694Z" fill="white"/>
</svg>
