<svg width="20" height="17" viewBox="0 0 20 17" fill="none" xmlns="http://www.w3.org/2000/svg">
<path d="M13 7.01075C10.53 9.59775 8.059 15.9478 8.059 15.9478C8.059 15.9478 4.529 7.01075 1 4.94775" stroke="white" stroke-width="1.5" stroke-linecap="round" stroke-linejoin="round"/>
<path d="M18.4964 1.52468L18.9224 5.94868C19.1984 8.81868 17.0474 11.3737 14.1774 11.6507C11.3614 11.9207 8.81045 9.86268 8.53945 7.04668C8.47462 6.377 8.54242 5.70112 8.73896 5.05766C8.9355 4.41421 9.25694 3.8158 9.68489 3.29665C10.1128 2.77749 10.6389 2.34778 11.2331 2.03206C11.8272 1.71635 12.4777 1.52083 13.1474 1.45668L17.8634 1.00268C17.9393 0.995365 18.0158 1.00307 18.0887 1.02535C18.1616 1.04763 18.2293 1.08405 18.2881 1.13253C18.3469 1.181 18.3955 1.24059 18.4313 1.30787C18.467 1.37516 18.4892 1.44883 18.4964 1.52468Z" stroke="white" stroke-width="1.5" stroke-linecap="round" stroke-linejoin="round"/>
</svg>
