<svg width="18" height="18" viewBox="0 0 18 18" fill="none" xmlns="http://www.w3.org/2000/svg">
<path d="M4.05806 3.193C4.11693 3.16386 4.18095 3.14661 4.24648 3.14223C4.31201 3.13784 4.37777 3.14641 4.43999 3.16745C4.50221 3.18848 4.55967 3.22157 4.6091 3.26481C4.65853 3.30806 4.69895 3.36062 4.72806 3.4195L5.12356 4.2215L5.93006 3.3565C6.02045 3.25952 6.14565 3.20241 6.27814 3.19773C6.41062 3.19304 6.53955 3.24116 6.63656 3.3315C6.83806 3.5205 6.84906 3.837 6.66106 4.039L5.59706 5.1805L5.99856 5.9935L6.66406 5.387C6.71264 5.34279 6.76946 5.30859 6.83126 5.28635C6.89307 5.26411 6.95864 5.25426 7.02425 5.25737C7.08986 5.26048 7.15422 5.27649 7.21364 5.30448C7.27306 5.33247 7.32638 5.37189 7.37056 5.4205C7.41492 5.4691 7.44925 5.52598 7.47158 5.58788C7.49391 5.64978 7.5038 5.71547 7.50069 5.7812C7.49758 5.84693 7.48152 5.9114 7.45344 5.97091C7.42536 6.03042 7.38582 6.0838 7.33706 6.128L6.45956 6.927L6.98756 7.9965C7.04644 8.11538 7.05568 8.25279 7.01325 8.37848C6.97082 8.50418 6.8802 8.60787 6.76131 8.66675C6.64243 8.72563 6.50503 8.73487 6.37933 8.69244C6.25363 8.65001 6.14994 8.55938 6.09106 8.4405L5.54356 7.331L4.56156 7.53C4.43141 7.55632 4.29613 7.52986 4.18548 7.45644C4.07483 7.38302 3.99789 7.26865 3.97156 7.1385C3.94524 7.00834 3.9717 6.87306 4.04512 6.76242C4.11854 6.65177 4.23291 6.57482 4.36306 6.5485L5.08506 6.4025L4.68756 5.5975L3.16756 5.8265C3.03628 5.84619 2.90255 5.81293 2.7958 5.73402C2.68904 5.65511 2.61801 5.53703 2.59831 5.40575C2.57862 5.27447 2.61189 5.14074 2.69079 5.03398C2.7697 4.92723 2.88778 4.85619 3.01906 4.8365L4.22206 4.655L3.83156 3.8635C3.80235 3.80461 3.78504 3.74054 3.78061 3.67496C3.77619 3.60937 3.78474 3.54356 3.80578 3.48128C3.82681 3.419 3.85993 3.36149 3.90322 3.31202C3.94651 3.26255 3.99913 3.22211 4.05806 3.193ZM15.3581 7.6245C15.4234 7.61771 15.4894 7.62387 15.5524 7.64262C15.6153 7.66136 15.674 7.69233 15.725 7.73375C15.776 7.77517 15.8183 7.82622 15.8495 7.88401C15.8808 7.94179 15.9003 8.00516 15.9071 8.0705C16.0071 9.024 15.5871 9.9255 14.7936 10.4625C14.6835 10.5307 14.5512 10.5537 14.4246 10.5265C14.298 10.4994 14.1868 10.4242 14.1143 10.3169C14.0419 10.2095 14.0138 10.0783 14.0361 9.95066C14.0583 9.82307 14.1291 9.70904 14.2336 9.6325C14.4701 9.47564 14.6587 9.25647 14.7785 8.99918C14.8983 8.74189 14.9447 8.45649 14.9126 8.1745C14.9056 8.10912 14.9117 8.04302 14.9303 7.97998C14.949 7.91694 14.9799 7.85819 15.0212 7.80711C15.0626 7.75602 15.1137 7.7136 15.1715 7.68226C15.2293 7.65093 15.2927 7.6313 15.3581 7.6245Z" fill="#F3F3FF"/>
<path fill-rule="evenodd" clip-rule="evenodd" d="M2.05508 17.9993C3.53708 17.9243 4.46258 17.5123 5.03758 16.9033C5.23858 17.1903 5.58758 17.3583 5.96608 17.2993C7.95308 16.9893 12.3811 16.1733 17.3576 14.4523C17.5446 14.3931 17.7079 14.2759 17.8238 14.1177C17.9397 13.9595 18.0021 13.7684 18.0021 13.5723C18.0021 13.3762 17.9397 13.1851 17.8238 13.0269C17.7079 12.8687 17.5446 12.7515 17.3576 12.6923C16.7933 12.4976 16.2371 12.3141 15.6891 12.1418C16.6816 11.6183 17.4431 10.7398 17.7411 9.62479C18.4136 7.11229 16.6486 4.92629 14.3581 5.62179C14.1966 4.46879 14.5706 3.40679 15.5521 2.83929L15.0521 1.97229C13.8381 2.67379 13.3281 3.87429 13.3236 5.10379C12.4631 4.44529 11.4201 4.42029 10.5336 4.88379C10.5298 4.73533 10.5087 4.58782 10.4706 4.44429C10.3181 3.87379 9.91058 3.46629 9.35058 3.23179C9.23558 2.70379 8.97058 2.06279 8.47008 1.58479C7.89008 1.03179 7.05708 0.756788 5.97158 1.02379C5.70471 0.658922 5.34633 0.3709 4.93258 0.188788C4.26508 -0.0987121 3.42658 -0.0927121 2.48058 0.451788C1.49208 0.914288 1.01558 1.59479 0.884085 2.30829C0.795085 2.79329 0.872585 3.25329 1.00008 3.61629C0.161085 4.35179 -0.0914151 5.19179 0.0290849 5.98329C0.133585 6.66779 0.506585 7.25279 0.872585 7.64979C0.743585 8.24329 0.844085 8.81029 1.22358 9.26279C1.32158 9.37912 1.43325 9.48296 1.55858 9.57429C1.55634 9.59454 1.55534 9.61491 1.55558 9.63529C1.56708 10.5643 1.62008 11.2988 1.81058 11.8698C1.19658 12.1043 0.617585 12.5808 0.0895848 13.2998C0.0313909 13.3788 0 13.4744 0 13.5725C0 13.6707 0.0313909 13.7663 0.0895848 13.8453C0.613085 14.5583 1.18708 15.0333 1.79558 15.2693C1.63358 15.8233 1.57058 16.5523 1.55608 17.5083C1.55453 17.5739 1.56643 17.6391 1.59107 17.6999C1.6157 17.7607 1.65253 17.8158 1.69929 17.8618C1.74605 17.9078 1.80175 17.9438 1.86295 17.9674C1.92414 17.9911 1.98953 18.0019 2.05508 17.9993ZM5.96058 13.5723C5.96058 14.0873 5.94058 14.6023 5.85858 15.0898V16.3028C6.34358 16.2263 6.97208 16.1203 7.71558 15.9783V14.1273H8.71558V15.7798C10.4179 15.428 12.1062 15.0121 13.7771 14.5328V13.5728H14.7771V14.2378C15.4486 14.0328 16.1371 13.8118 16.8371 13.5728C15.8779 13.2447 14.9109 12.9396 13.9371 12.6578L13.8821 12.6628L12.2356 12.1888C11.9763 12.1211 11.7213 12.0561 11.4706 11.9938V14.1273H10.4706V11.7518C8.94482 11.3925 7.40646 11.089 5.85858 10.8418V12.0548C5.94008 12.5423 5.96058 13.0573 5.96058 13.5723ZM4.85858 15.0023V12.1423C4.78858 11.7623 4.67608 11.4408 4.50408 11.1758C4.24158 10.7713 3.73608 10.3508 2.57008 10.1958C2.59558 10.8073 2.65308 11.2358 2.75858 11.5523L3.06258 12.4633L2.16658 12.8053C1.85508 12.9243 1.51008 13.1613 1.15108 13.5723C1.50608 13.9793 1.84858 14.2158 2.15708 14.3358L3.01358 14.6688L2.75508 15.5513C2.66008 15.8758 2.60108 16.3203 2.57258 16.9483C3.73708 16.7933 4.24158 16.3733 4.50408 15.9693C4.67608 15.7043 4.78859 15.3828 4.85909 15.0028M5.33258 9.96779C4.76008 9.52379 4.07708 9.17779 3.24208 9.10529C2.56508 9.04629 2.17558 8.84029 1.98958 8.61879C1.82458 8.42229 1.74708 8.12529 1.90608 7.66529L2.01508 7.35029L1.76708 7.12829C1.44958 6.84429 1.09808 6.35679 1.01808 5.83279C0.947085 5.36479 1.07659 4.77479 1.90559 4.17429L2.26308 3.91579L2.05108 3.52829C1.91608 3.28179 1.79608 2.88329 1.86808 2.49029C1.93408 2.13229 2.17358 1.69629 2.92108 1.35129L2.94308 1.34129L2.96358 1.32929C3.67558 0.914288 4.18858 0.958288 4.53858 1.10929C4.91758 1.27179 5.18208 1.59429 5.30058 1.83429L5.49608 2.22929L5.91208 2.08579C6.87958 1.75079 7.43758 1.98279 7.78058 2.31029C8.16408 2.67629 8.36158 3.24429 8.41258 3.66679L8.45208 3.99679L8.77208 4.08829C9.24008 4.22179 9.43908 4.45579 9.50558 4.70379C9.58058 4.98329 9.52559 5.42029 9.18559 6.00779C8.92976 6.45288 8.76936 6.94634 8.71458 7.45679C8.55608 8.24329 8.64958 9.03579 8.94608 9.75779C8.99008 9.93529 9.03609 10.1068 9.07959 10.2698L9.09708 10.3338C9.10575 10.3651 9.11325 10.3961 9.11959 10.4268C7.79359 10.1488 6.70958 9.96179 5.96708 9.84579C5.74766 9.81095 5.52347 9.85412 5.33258 9.96779ZM14.0276 11.6428C13.029 11.3566 12.024 11.0929 11.0136 10.8518C10.5269 10.4833 10.1428 9.99607 9.89808 9.43679C9.74808 8.81379 9.64458 8.20629 9.70058 7.62429C9.71058 7.57529 9.72225 7.52629 9.73558 7.47729C10.0121 6.44429 10.6821 5.83079 11.3206 5.63879C11.9146 5.46029 12.6031 5.60229 13.1606 6.36079L13.6341 7.00579L14.3671 6.68479C15.2286 6.30679 15.8951 6.52829 16.3206 6.98029C16.7781 7.46679 17.0516 8.33279 16.7756 9.36629C16.4571 10.5553 15.3751 11.4513 14.0276 11.6428Z" fill="#F3F3FF"/>
</svg>
